<?xml version="1.0" encoding="UTF-8"?>
<svg version="1.1" xmlns="http://www.w3.org/2000/svg" width="128" height="192">
<path d="M0 0 C42.24 0 84.48 0 128 0 C128 63.36 128 126.72 128 192 C85.76 192 43.52 192 0 192 C0 128.64 0 65.28 0 0 Z " fill="#2F2A0D" transform="translate(0,0)"/>
<path d="M0 0 C0.66 0 1.32 0 2 0 C3.625 2.5 3.625 2.5 5 5 C5.99 4.01 6.98 3.02 8 2 C8.103125 2.639375 8.20625 3.27875 8.3125 3.9375 C8.539375 4.618125 8.76625 5.29875 9 6 C9.99 6.33 10.98 6.66 12 7 C12.495 7.99 12.495 7.99 13 9 C13 6.69 13 4.38 13 2 C13.99 2 14.98 2 16 2 C16.0515625 2.82242188 16.103125 3.64484375 16.15625 4.4921875 C17.08236301 13.60598145 19.86918906 18.35716529 26 25 C27.62227653 28.24455307 26.96014095 31.70301654 26.83984375 35.2734375 C26.81007761 37.95389483 26.81007761 37.95389483 27.99497795 39.90307236 C29.11349112 42.23679347 29.24696968 43.70606581 29.24050903 46.27740479 C29.24326403 47.12256779 29.24601902 47.96773079 29.2488575 48.83850479 C29.23806317 50.22217051 29.23806317 50.22217051 29.22705078 51.63378906 C29.22729185 52.62548977 29.22753292 53.61719048 29.2277813 54.63894272 C29.22628894 57.84792818 29.21105957 61.05668111 29.1953125 64.265625 C29.19237183 66.24723194 29.19033154 68.22884042 29.18920898 70.21044922 C29.17872445 77.55698984 29.15080204 84.90349721 29.125 92.25 C29.08375 108.6675 29.0425 125.085 29 142 C-10.27 142 -49.54 142 -90 142 C-90 135.73 -90 129.46 -90 123 C-88.02 122.01 -88.02 122.01 -86 121 C-85.55011719 121.38671875 -85.10023437 121.7734375 -84.63671875 122.171875 C-76.99794656 128.35637193 -67.64987267 132.19276148 -57.75 132.0625 C-56.85796875 132.05347656 -55.9659375 132.04445312 -55.046875 132.03515625 C-54.37140625 132.02355469 -53.6959375 132.01195312 -53 132 C-52.34 129.03 -51.68 126.06 -51 123 C-50.67 123 -50.34 123 -50 123 C-49.505 127.95 -49.505 127.95 -49 133 C-40.2137207 130.36036792 -40.2137207 130.36036792 -33 125 C-32.67 123.35 -32.34 121.7 -32 120 C-27.71 120 -23.42 120 -19 120 C-19 119.67 -19 119.34 -19 119 C-17.02 119 -15.04 119 -13 119 C-13 118.34 -13 117.68 -13 117 C-12.01 117 -11.02 117 -10 117 C-11.4163067 114.1673866 -13.14497293 113.98292167 -16.0625 112.875 C-16.98160156 112.52179688 -17.90070313 112.16859375 -18.84765625 111.8046875 C-19.55792969 111.53914063 -20.26820312 111.27359375 -21 111 C-17.30581799 109.768606 -14.7943739 110.35567236 -11 111 C-14.07691766 108.94872156 -14.93644999 108.72739128 -18.44921875 108.5859375 C-19.29677734 108.54726562 -20.14433594 108.50859375 -21.01757812 108.46875 C-21.89865234 108.4378125 -22.77972656 108.406875 -23.6875 108.375 C-24.58017578 108.33632812 -25.47285156 108.29765625 -26.39257812 108.2578125 C-28.5948462 108.16359782 -30.79710722 108.07798412 -33 108 C-34.20272819 105.59454362 -34.10071472 104.05003047 -34.0625 101.375 C-34.05347656 100.55773437 -34.04445312 99.74046875 -34.03515625 98.8984375 C-34.02355469 98.27195312 -34.01195312 97.64546875 -34 97 C-32.02 97 -30.04 97 -28 97 C-28.495 95.453125 -28.495 95.453125 -29 93.875 C-29.9715192 90.51573291 -30.17116771 87.50893798 -30 84 C-30.66 84 -31.32 84 -32 84 C-32.495 85.98 -32.495 85.98 -33 88 C-33.33965474 85.81347261 -33.67142477 83.62571975 -34 81.4375 C-34.185625 80.21933594 -34.37125 79.00117188 -34.5625 77.74609375 C-35.76660258 67.43596544 -35.76660258 67.43596544 -33.0625 63.375 C-30.47236488 58.74717116 -30.477374 54.27101691 -30.37109375 49.05078125 C-29.95953335 45.66732151 -28.93626272 43.76829074 -27 41 C-27.99 39.35 -28.98 37.7 -30 36 C-29.34 37.98 -28.68 39.96 -28 42 C-28.99 41.67 -29.98 41.34 -31 41 C-33.57926386 34.43460109 -32.74467488 30.37472876 -30 24 C-26 29 -26 29 -24.4375 31.875 C-22.19936988 34.27785973 -22.19936988 34.27785973 -19.30078125 34.08984375 C-16.5046566 33.8356506 -13.76543482 33.4815671 -11 33 C-14.75 36 -14.75 36 -17 36 C-16.505 37.98 -16.505 37.98 -16 40 C-16.9590625 40.1546875 -16.9590625 40.1546875 -17.9375 40.3125 C-18.618125 40.539375 -19.29875 40.76625 -20 41 C-21.1577506 44.47325181 -21.06866652 47.36067448 -21 51 C-17.83349933 52.58325034 -15.48972589 52.40052114 -12 52 C-9.27983612 49.55177488 -9.27983612 49.55177488 -7.1875 46.25 C-6.43855469 45.18265625 -5.68960938 44.1153125 -4.91796875 43.015625 C-2.72033166 39.62731757 -2.72033166 39.62731757 -1 36 C-1.33 35.34 -1.66 34.68 -2 34 C-2.06950541 32.45976004 -2.08452357 30.91665012 -2.0625 29.375 C-2.05347656 28.55773437 -2.04445313 27.74046875 -2.03515625 26.8984375 C-2.02355469 26.27195312 -2.01195313 25.64546875 -2 25 C0 24 0 24 2.4375 23.6875 C5.08745624 23.19833031 5.08745624 23.19833031 6.8125 21.25 C8.19608294 18.62847443 8.24360427 16.92325122 8 14 C4.12202338 13.56613908 4.12202338 13.56613908 2.25 15.5 C1.8375 15.995 1.425 16.49 1 17 C0.86722656 16.32453125 0.73445313 15.6490625 0.59765625 14.953125 C0.33275391 13.61507812 0.33275391 13.61507812 0.0625 12.25 C-0.19853516 10.92742188 -0.19853516 10.92742188 -0.46484375 9.578125 C-0.92368488 7.36764947 -1.43336074 5.18487932 -2 3 C-1.01 3.495 -1.01 3.495 0 4 C0 2.68 0 1.36 0 0 Z " fill="#262409" transform="translate(99,50)"/>
<path d="M0 0 C42.24 0 84.48 0 128 0 C128 9.9 128 19.8 128 30 C126.35 29.67 124.7 29.34 123 29 C123 29.99 123 30.98 123 32 C122.01 32 121.02 32 120 32 C120 32.66 120 33.32 120 34 C119.34 34 118.68 34 118 34 C118 34.99 118 35.98 118 37 C117.01 37 116.02 37 115 37 C115.33 37.99 115.66 38.98 116 40 C114.68 40.99 113.36 41.98 112 43 C111.505 42.2575 111.01 41.515 110.5 40.75 C107.37704497 37.31474947 104.17418778 35.8669707 100 34 C99.39414063 33.64164063 98.78828125 33.28328125 98.1640625 32.9140625 C92.42745963 30.49102085 84.8089886 31.08195815 79 32.98046875 C74.72819833 35.04644426 71.03680577 37.2730111 68 41 C68 39.68 68 38.36 68 37 C68.66 37 69.32 37 70 37 C70.42545292 29.03931326 70.42545292 29.03931326 67 22 C67 20.68 67 19.36 67 18 C66.113125 17.773125 65.22625 17.54625 64.3125 17.3125 C61 16 61 16 58.625 13.4375 C55.23509351 10.28972969 52.42548539 10.10793867 48 10 C47.17757812 9.96132812 46.35515625 9.92265625 45.5078125 9.8828125 C37.78525255 9.67155706 31.856491 10.60586355 26 16 C25.0925 16.804375 24.185 17.60875 23.25 18.4375 C20.79855076 21.2294283 20.34488118 22.37874762 20 26 C19.814375 27.258125 19.62875 28.51625 19.4375 29.8125 C19.293125 30.864375 19.14875 31.91625 19 33 C19.33 33 19.66 33 20 33 C20.16435547 33.84884766 20.16435547 33.84884766 20.33203125 34.71484375 C20.49058594 35.44832031 20.64914063 36.18179688 20.8125 36.9375 C20.96332031 37.66839844 21.11414063 38.39929687 21.26953125 39.15234375 C21.51058594 39.76207031 21.75164063 40.37179688 22 41 C23.485 41.495 23.485 41.495 25 42 C25.33 42.66 25.66 43.32 26 44 C26.04898437 43.22914062 26.09796875 42.45828125 26.1484375 41.6640625 C26.22320313 40.66117188 26.29796875 39.65828125 26.375 38.625 C26.44460937 37.62726562 26.51421875 36.62953125 26.5859375 35.6015625 C27 33 27 33 29 31 C29.33 31.33 29.66 31.66 30 32 C30.99 31.01 31.98 30.02 33 29 C33 29.99 33 30.98 33 32 C33.66 32 34.32 32 35 32 C35.495 30.515 35.495 30.515 36 29 C38.0625 27.8125 38.0625 27.8125 40 27 C40 28.32 40 29.64 40 31 C41.98 29.68 43.96 28.36 46 27 C46.66 27.33 47.32 27.66 48 28 C48 28.66 48 29.32 48 30 C51.465 28.02 51.465 28.02 55 26 C58 30.75 58 30.75 58 33 C58.66 33 59.32 33 60 33 C60.33 32.01 60.66 31.02 61 30 C61.495 34.95 61.495 34.95 62 40 C61.01 39.34 60.02 38.68 59 38 C54.34582831 37.65777555 54.34582831 37.65777555 50 39 C50.71027344 39.04898438 51.42054687 39.09796875 52.15234375 39.1484375 C53.07144531 39.22320312 53.99054687 39.29796875 54.9375 39.375 C55.85402344 39.44460937 56.77054688 39.51421875 57.71484375 39.5859375 C58.84599609 39.79089844 58.84599609 39.79089844 60 40 C62.73344761 45.46689522 60.32822354 55.21432616 59 61 C57.61618824 63.48865881 56.207286 65.15576126 54.24609375 67.1875 C52.09766921 70.31248115 52.88423608 73.65132824 53.11328125 77.30078125 C52.93270134 81.60356471 50.93072278 84.90053864 48 88 C47.34 88 46.68 88 46 88 C44.69342506 86.48449078 43.45394299 84.91075765 42.25 83.3125 C39.85497606 80.19634659 37.73885208 77.6036387 34.5 75.375 C32 73 32 73 31.875 69.125 C31.93429688 68.44308594 31.99359375 67.76117188 32.0546875 67.05859375 C31.95873757 63.44676426 29.88641556 61.00647479 28 58 C28 57.01 28 56.02 28 55 C27.401875 54.9175 26.80375 54.835 26.1875 54.75 C23.30531281 53.76182154 22.52329844 52.61136876 21 50 C20.3125 47.25 20.3125 47.25 20 45 C17.03 45 14.06 45 11 45 C11.99 44.505 11.99 44.505 13 44 C12.67 42.02 12.34 40.04 12 38 C11.34 38 10.68 38 10 38 C10 37.34 10 36.68 10 36 C9.01 36 8.02 36 7 36 C7 35.34 7 34.68 7 34 C6.34 34 5.68 34 5 34 C5 34.66 5 35.32 5 36 C2.525 36.495 2.525 36.495 0 37 C0 24.79 0 12.58 0 0 Z " fill="#678A8F" transform="translate(0,0)"/>
<path d="M0 0 C0.66 0 1.32 0 2 0 C2 0.66 2 1.32 2 2 C2.99 2 3.98 2 5 2 C5 2.66 5 3.32 5 4 C5.66 4 6.32 4 7 4 C7.33 5.98 7.66 7.96 8 10 C9.0725 10 10.145 10 11.25 10 C15 11 15 11 16.21484375 12.77734375 C16.85258884 14.19370131 17.44347942 15.6323013 17.98046875 17.08984375 C18.84909321 19.16456948 18.84909321 19.16456948 20.9765625 19.97265625 C23.67523003 21.34282915 24.08486965 22.72767226 25.1875 25.5 C25.51105469 26.2940625 25.83460937 27.088125 26.16796875 27.90625 C26.57982422 28.94265625 26.57982422 28.94265625 27 30 C27.495 30.99 27.495 30.99 28 32 C27.835 33.03125 27.67 34.0625 27.5 35.125 C28.1858755 40.44053515 30.70234863 41.86738094 34.73046875 45.140625 C37.23186786 47.18996403 39.18750082 49.32065339 41 52 C41 52.66 41 53.32 41 54 C41.66 54 42.32 54 43 54 C43.28875 53.4225 43.5775 52.845 43.875 52.25 C44.91666667 50.16666667 45.95833333 48.08333333 47 46 C47.66 46 48.32 46 49 46 C49.33 45.01 49.66 44.02 50 43 C52.50037734 45.17424117 53.43628586 46.73045798 54 50 C52.68 49.34 51.36 48.68 50 48 C49.62875 48.763125 49.2575 49.52625 48.875 50.3125 C46.6369085 53.52043115 44.55788567 54.4977816 41 56 C44.88320269 56.35892618 44.88320269 56.35892618 47.25 54.5625 C50.89858267 52.48944167 53.83557726 52.35291718 58 52 C61.88572259 56.73044489 62.42459728 61.07480434 62.3359375 67.0859375 C61.16139221 77.27443505 56.26212747 85.02619521 49 92 C51.475 91.505 51.475 91.505 54 91 C52.53280625 96.46863125 50.07685708 102.0904454 45.10546875 105.17578125 C41.39853015 106.62692048 37.90478295 106.65079716 34 106 C30.32059912 104.25749128 27.71207423 102.14551072 25.5625 98.6875 C25.2840625 97.8521875 25.2840625 97.8521875 25 97 C27.97 96.505 27.97 96.505 31 96 C30.113125 95.34 29.22625 94.68 28.3125 94 C24.14857352 90.48885059 20.43881195 86.26053942 19.69140625 80.70703125 C19.6875 78.5 19.6875 78.5 20 75 C19.01 75.99 19.01 75.99 18 77 C17.67 75.02 17.34 73.04 17 71 C16.34 72.32 15.68 73.64 15 75 C13.35 73.68 11.7 72.36 10 71 C10.97737769 72.64689635 11.9569532 74.29248854 12.9375 75.9375 C13.48277344 76.85402344 14.02804688 77.77054687 14.58984375 78.71484375 C15.80732173 80.88412677 15.80732173 80.88412677 17 82 C17.16796875 83.99609375 17.16796875 83.99609375 17.1875 86.4375 C17.20167969 87.24058594 17.21585938 88.04367188 17.23046875 88.87109375 C17 91 17 91 15 93 C13.35 90.69 11.7 88.38 10 86 C10.95198711 87.64951226 11.91179145 89.29451508 12.875 90.9375 C13.40867187 91.85402344 13.94234375 92.77054687 14.4921875 93.71484375 C15.79712563 96.10700296 15.79712563 96.10700296 18 97 C18 97.99 18 98.98 18 100 C17.38511719 100.03738281 16.77023438 100.07476562 16.13671875 100.11328125 C15.32847656 100.17902344 14.52023438 100.24476563 13.6875 100.3125 C12.88699219 100.37050781 12.08648438 100.42851562 11.26171875 100.48828125 C8.60933741 101.08838825 7.63496121 101.85708967 6 104 C6 104.66 6 105.32 6 106 C9.465 105.01 9.465 105.01 13 104 C12.20890398 105.27118864 11.41709922 106.54193623 10.625 107.8125 C10.18414062 108.52019531 9.74328125 109.22789062 9.2890625 109.95703125 C8.21811524 111.65432039 7.11323761 113.33014358 6 115 C5.01 114.01 4.02 113.02 3 112 C3.61277612 114.96175123 4.25372522 116.38058783 6 119 C6.03308269 121.98469099 5.94962135 124.85293216 5.7578125 127.82421875 C5.68697952 129.11632011 5.68697952 129.11632011 5.61471558 130.43452454 C5.46154604 133.18619601 5.29345879 135.93672633 5.125 138.6875 C5.0185478 140.55267851 4.91306704 142.41791273 4.80859375 144.28320312 C4.55033132 148.85619161 4.27868661 153.42821259 4 158 C1.03 158 -1.94 158 -5 158 C-5 106.85 -5 55.7 -5 3 C-3.35 2.67 -1.7 2.34 0 2 C0 1.34 0 0.68 0 0 Z " fill="#324742" transform="translate(5,34)"/>
<path d="M0 0 C1.98 1.65 3.96 3.3 6 5 C6.66 3.68 7.32 2.36 8 1 C8.66 2.65 9.32 4.3 10 6 C10.66 5.01 11.32 4.02 12 3 C11.93039063 3.68964844 11.86078125 4.37929687 11.7890625 5.08984375 C11.40555677 11.7464075 12.24048123 15.76381907 16.265625 21.12109375 C18.62091152 23.67265415 20.99306697 25.28175255 24 27 C24 27.33 24 27.66 24 28 C21.69 28.33 19.38 28.66 17 29 C21.3169464 33.86329628 21.3169464 33.86329628 27.0859375 36.30078125 C28.21902344 36.30658203 28.21902344 36.30658203 29.375 36.3125 C30.12523437 36.32925781 30.87546875 36.34601563 31.6484375 36.36328125 C34.75561458 35.88326884 36.49446752 34.90242369 39 33 C40.86642222 30.31903846 40.86642222 30.31903846 42.3125 27.3125 C42.82425781 26.31863281 43.33601563 25.32476562 43.86328125 24.30078125 C44.23839844 23.54152344 44.61351562 22.78226563 45 22 C43.02 22.66 41.04 23.32 39 24 C39.886875 23.05125 40.77375 22.1025 41.6875 21.125 C45.37656322 16.85760383 47.67783895 12.10669929 50 7 C50.99 7.66 51.98 8.32 53 9 C52.505 10.0209375 52.505 10.0209375 52 11.0625 C49.71877355 17.76360269 51.49104311 24.30400379 53 31 C53.66 31 54.32 31 55 31 C55.66 35.29 56.32 39.58 57 44 C55.02 44 53.04 44 51 44 C51.495 49.445 51.495 49.445 52 55 C53.32515625 54.95359375 54.6503125 54.9071875 56.015625 54.859375 C57.76039412 54.82185308 59.50518762 54.78545337 61.25 54.75 C62.12269531 54.71648437 62.99539062 54.68296875 63.89453125 54.6484375 C70.41598332 54.54887335 70.41598332 54.54887335 73.609375 57.015625 C74.29773438 57.99789062 74.29773438 57.99789062 75 59 C72.03 58.67 69.06 58.34 66 58 C70.455 59.98 70.455 59.98 75 62 C75 62.66 75 63.32 75 64 C74.01 64 73.02 64 72 64 C72 64.66 72 65.32 72 66 C68.72708382 67.95294291 66.28659202 68.24471499 62.5 68.1875 C61.5615625 68.18105469 60.623125 68.17460937 59.65625 68.16796875 C57.29379415 68.01857816 55.26283335 67.66710889 53 67 C53.07605469 67.75925781 53.15210938 68.51851563 53.23046875 69.30078125 C53 72 53 72 51.42578125 73.73046875 C42.33243968 80 42.33243968 80 36 80 C35.67 78.35 35.34 76.7 35 75 C34.690625 75.639375 34.38125 76.27875 34.0625 76.9375 C33 79 33 79 32 80 C22.08247476 81.29266889 12.07943646 78.40114668 3.9375 72.75 C2.93009766 71.96882813 2.93009766 71.96882813 1.90234375 71.171875 C-0.19522478 69.65034164 -0.19522478 69.65034164 -4 70 C-5.50771546 65.47685362 -4.61480956 60.93061937 -4.140625 56.24804688 C-3.70431735 51.71520481 -3.70431735 51.71520481 -5.46484375 47.63671875 C-6.22474609 46.82654297 -6.22474609 46.82654297 -7 46 C-7.1875 43.25 -7.1875 43.25 -7 41 C-5.68 42.32 -4.36 43.64 -3 45 C-1.35 42.36 0.3 39.72 2 37 C-1.05270463 36.84188612 -1.05270463 36.84188612 -4 38 C-3.6875 35.625 -3.6875 35.625 -3 33 C0.20380017 30.86413322 1.01939967 30.76867825 4.6875 30.875 C5.89986328 30.90207031 5.89986328 30.90207031 7.13671875 30.9296875 C7.75160156 30.95289063 8.36648437 30.97609375 9 31 C9 30.01 9 29.02 9 28 C8.01 27.67 7.02 27.34 6 27 C4.359375 25.0390625 4.359375 25.0390625 2.75 22.625 C2.20859375 21.83351563 1.6671875 21.04203125 1.109375 20.2265625 C0 18 0 18 1 15 C2.65 17.64 4.3 20.28 6 23 C7.52017255 21.47982745 7.31610603 20.11887658 7.4375 18 C7.42121545 12.89479386 5.46228849 10.00424677 2.41015625 6.04296875 C0.98887599 3.98388405 0.43358821 2.44236396 0 0 Z " fill="#263327" transform="translate(14,103)"/>
<path d="M0 0 C0.66 0.99 1.32 1.98 2 3 C4.24349012 6.07441239 6.58906777 8.57526202 9.5 11 C12.40433243 13.42339996 14.82833603 15.87280388 17 19 C17 19.66 17 20.32 17 21 C17.66 21 18.32 21 19 21 C19.28875 20.4225 19.5775 19.845 19.875 19.25 C20.91666667 17.16666667 21.95833333 15.08333333 23 13 C23.66 13 24.32 13 25 13 C25.33 12.01 25.66 11.02 26 10 C28.50037734 12.17424117 29.43628586 13.73045798 30 17 C28.68 16.34 27.36 15.68 26 15 C25.62875 15.763125 25.2575 16.52625 24.875 17.3125 C22.6369085 20.52043115 20.55788567 21.4977816 17 23 C20.88320269 23.35892618 20.88320269 23.35892618 23.25 21.5625 C26.89858267 19.48944167 29.83557726 19.35291718 34 19 C37.88572259 23.73044489 38.42459728 28.07480434 38.3359375 34.0859375 C37.16139221 44.27443505 32.26212747 52.02619521 25 59 C27.475 58.505 27.475 58.505 30 58 C28.53280625 63.46863125 26.07685708 69.0904454 21.10546875 72.17578125 C17.39853015 73.62692048 13.90478295 73.65079716 10 73 C6.32059912 71.25749128 3.71207423 69.14551072 1.5625 65.6875 C1.2840625 64.8521875 1.2840625 64.8521875 1 64 C3.97 63.505 3.97 63.505 7 63 C6.113125 62.34 5.22625 61.68 4.3125 61 C0.14857352 57.48885059 -3.56118805 53.26053942 -4.30859375 47.70703125 C-4.3125 45.5 -4.3125 45.5 -4 42 C-4.66 42.66 -5.32 43.32 -6 44 C-6.12375 43.030625 -6.2475 42.06125 -6.375 41.0625 C-6.58125 40.051875 -6.7875 39.04125 -7 38 C-7.66 37.67 -8.32 37.34 -9 37 C-10.44558409 34.1535406 -11.79194374 31.28654047 -13.08203125 28.3671875 C-15.29954656 23.65372445 -17.81009502 21.10100312 -22 18 C-23.98 18.99 -23.98 18.99 -26 20 C-24.51368639 16.08153685 -22.71090554 14.85545277 -19 13 C-17.33648708 12.34608621 -15.66949632 11.70098297 -14 11.0625 C-10.06493283 9.54585953 -7.19564538 7.79618971 -4 5 C-3.34 5 -2.68 5 -2 5 C-1.34 3.35 -0.68 1.7 0 0 Z " fill="#324743" transform="translate(29,67)"/>
<path d="M0 0 C2.50037734 2.17424117 3.43628586 3.73045798 4 7 C4.66 7 5.32 7 6 7 C6.33 6.01 6.66 5.02 7 4 C7.495 8.95 7.495 8.95 8 14 C7.01 13.34 6.02 12.68 5 12 C0.34582831 11.65777555 0.34582831 11.65777555 -4 13 C-3.28972656 13.04898438 -2.57945313 13.09796875 -1.84765625 13.1484375 C-0.46900391 13.26058594 -0.46900391 13.26058594 0.9375 13.375 C1.85402344 13.44460937 2.77054688 13.51421875 3.71484375 13.5859375 C4.46894531 13.72257812 5.22304688 13.85921875 6 14 C8.73344761 19.46689522 6.32822354 29.21432616 5 35 C3.61618824 37.48865881 2.207286 39.15576126 0.24609375 41.1875 C-1.90233079 44.31248115 -1.11576392 47.65132824 -0.88671875 51.30078125 C-1.06729866 55.60356471 -3.06927722 58.90053864 -6 62 C-6.66 62 -7.32 62 -8 62 C-9.30657494 60.48449078 -10.54605701 58.91075765 -11.75 57.3125 C-14.14502394 54.19634659 -16.26114792 51.6036387 -19.5 49.375 C-22 47 -22 47 -22.125 43.125 C-22.06570312 42.44308594 -22.00640625 41.76117188 -21.9453125 41.05859375 C-22.04126243 37.44676426 -24.11358444 35.00647479 -26 32 C-26 31.01 -26 30.02 -26 29 C-26.598125 28.9175 -27.19625 28.835 -27.8125 28.75 C-30.69468719 27.76182154 -31.47670156 26.61136876 -33 24 C-33.34820041 22.33637583 -33.68404492 20.67004829 -34 19 C-34.66 18.67 -35.32 18.34 -36 18 C-35.34 18 -34.68 18 -34 18 C-34 17.34 -34 16.68 -34 16 C-32.68 15.67 -31.36 15.34 -30 15 C-29.01 16.485 -29.01 16.485 -28 18 C-27.95101563 17.22914062 -27.90203125 16.45828125 -27.8515625 15.6640625 C-27.77679688 14.66117188 -27.70203125 13.65828125 -27.625 12.625 C-27.52058594 11.12839844 -27.52058594 11.12839844 -27.4140625 9.6015625 C-27 7 -27 7 -25 5 C-24.67 5.33 -24.34 5.66 -24 6 C-23.01 5.01 -22.02 4.02 -21 3 C-21 3.99 -21 4.98 -21 6 C-20.34 6 -19.68 6 -19 6 C-18.67 5.01 -18.34 4.02 -18 3 C-15.9375 1.8125 -15.9375 1.8125 -14 1 C-14 2.32 -14 3.64 -14 5 C-12.02 3.68 -10.04 2.36 -8 1 C-7.34 1.33 -6.68 1.66 -6 2 C-6 2.66 -6 3.32 -6 4 C-4.02 2.68 -2.04 1.36 0 0 Z " fill="#DAA050" transform="translate(54,26)"/>
<path d="M0 0 C0.33 0 0.66 0 1 0 C1.99 3.63 2.98 7.26 4 11 C3.67 11.33 3.34 11.66 3 12 C4.98 12.66 6.96 13.32 9 14 C9.33 16.31 9.66 18.62 10 21 C10.66 20.01 11.32 19.02 12 18 C13.65 18.33 15.3 18.66 17 19 C16.70980098 22.77258731 16.48342371 25.32665983 14.25 28.4375 C11.59267675 30.28286337 10.1685371 30.35205968 7 30 C6.9727585 31.41655793 6.95349533 32.83327045 6.9375 34.25 C6.92589844 35.03890625 6.91429688 35.8278125 6.90234375 36.640625 C6.88840928 38.98938397 6.88840928 38.98938397 7.69921875 41.05859375 C8 43 8 43 6.7421875 44.89453125 C6.12601563 45.52746094 5.50984375 46.16039062 4.875 46.8125 C2.389092 49.43105526 0.36582826 51.91324385 -1.5 55 C-4 58 -4 58 -7.625 58.5625 C-11 58 -11 58 -14 56 C-14.5 52.6875 -14.5 52.6875 -14 49 C-11.5 46.25 -11.5 46.25 -9 44 C-9 43.01 -9 42.02 -9 41 C-8.01 40.34 -7.02 39.68 -6 39 C-7.175625 39.350625 -8.35125 39.70125 -9.5625 40.0625 C-11.7578125 40.3671875 -11.7578125 40.3671875 -14 40 C-17.42140091 36.89081819 -19.93755801 33.12488397 -22 29 C-22.0716735 26.44842345 -22.09308442 23.92527029 -22.0625 21.375 C-22.05798828 20.66859375 -22.05347656 19.9621875 -22.04882812 19.234375 C-22.03703875 17.48954725 -22.01910324 15.744763 -22 14 C-20.68 13.67 -19.36 13.34 -18 13 C-17.67 14.65 -17.34 16.3 -17 18 C-16.67 18 -16.34 18 -16 18 C-16 16.35 -16 14.7 -16 13 C-18.97 12.505 -18.97 12.505 -22 12 C-22 11.01 -22 10.02 -22 9 C-19.69 9 -17.38 9 -15 9 C-15.66 8.34 -16.32 7.68 -17 7 C-15.68 6.01 -14.36 5.02 -13 4 C-12.34 4.33 -11.68 4.66 -11 5 C-9.65737935 4.70630173 -8.32303717 4.3721042 -7 4 C-6.34 4 -5.68 4 -5 4 C-4.67 3.01 -4.34 2.02 -4 1 C-3 3 -3 3 -3 4 C-2.525625 3.34 -2.05125 2.68 -1.5625 2 C-1.046875 1.34 -0.53125 0.68 0 0 Z " fill="#CD9144" transform="translate(91,45)"/>
<path d="M0 0 C2.2477975 2.05233685 3.0022242 3.00667261 4 6 C4.09179027 9.02826359 4.1259318 12.03312463 4.11352539 15.0612793 C4.11367142 15.98830658 4.11381744 16.91533386 4.1139679 17.87045288 C4.11327054 20.93839854 4.10548637 24.00628368 4.09765625 27.07421875 C4.09579144 29.1998542 4.09436784 31.32549007 4.09336853 33.4511261 C4.08954829 39.04889103 4.07972219 44.64663007 4.06866455 50.24438477 C4.05843984 55.95523732 4.05386863 61.66609406 4.04882812 67.37695312 C4.03809951 78.5846468 4.02102897 89.79232125 4 101 C0.04 101 -3.92 101 -8 101 C-8.07476562 99.77925781 -8.14953125 98.55851562 -8.2265625 97.30078125 C-9.02766959 86.63346505 -10.62545161 78.41391023 -16 69 C-16.94875 69.020625 -17.8975 69.04125 -18.875 69.0625 C-22 69 -22 69 -24 68 C-24 67.01 -24 66.02 -24 65 C-24.99 65 -25.98 65 -27 65 C-26.00670796 61.2074304 -25.01424971 59.01668258 -22.4375 56 C-19.84469215 52.80885187 -19.28812449 51.03374284 -19 47 C-16.66666667 47 -14.33333333 47 -12 47 C-11.34 47.99 -10.68 48.98 -10 50 C-9.67 47.36 -9.34 44.72 -9 42 C-7.02 42.33 -5.04 42.66 -3 43 C-3.7734375 42.4740625 -3.7734375 42.4740625 -4.5625 41.9375 C-6 40 -6 40 -5.875 36.625 C-5.0283161 33.11730957 -3.99895604 30.95845494 -2 28 C-1.34 26.68 -0.68 25.36 0 24 C0 27.3 0 30.6 0 34 C2.51313556 29.17318409 2.2970588 24.55195836 2.25 19.25 C2.25773437 18.3940625 2.26546875 17.538125 2.2734375 16.65625 C2.25576403 10.82400437 1.44145783 5.65142991 0 0 Z " fill="#40521D" transform="translate(124,91)"/>
<path d="M0 0 C0.85056945 3.55692677 1.16909807 5.49270578 0 9 C1.093125 8.835 2.18625 8.67 3.3125 8.5 C7 8 7 8 10 8 C10.33 7.01 10.66 6.02 11 5 C12.32 4.34 13.64 3.68 15 3 C15 9.27 15 15.54 15 22 C13.35 21.67 11.7 21.34 10 21 C10 21.99 10 22.98 10 24 C9.01 24 8.02 24 7 24 C7 24.66 7 25.32 7 26 C6.34 26 5.68 26 5 26 C5 26.99 5 27.98 5 29 C4.01 29 3.02 29 2 29 C2.495 30.485 2.495 30.485 3 32 C1.68 32.99 0.36 33.98 -1 35 C-1.495 34.2575 -1.99 33.515 -2.5 32.75 C-5.62295503 29.31474947 -8.82581222 27.8669707 -13 26 C-13.60585937 25.64164063 -14.21171875 25.28328125 -14.8359375 24.9140625 C-20.57254037 22.49102085 -28.1910114 23.08195815 -34 24.98046875 C-38.27180167 27.04644426 -41.96319423 29.2730111 -45 33 C-45 31.68 -45 30.36 -45 29 C-44.34 29 -43.68 29 -43 29 C-42.79410279 21.43592467 -42.79410279 21.43592467 -44 14 C-40.19911585 12.26466103 -36.97262286 11.68038916 -32.8125 11.4375 C-28.75445989 11.28867058 -28.75445989 11.28867058 -25 10 C-24.566875 9.154375 -24.13375 8.30875 -23.6875 7.4375 C-23.130625 6.633125 -22.57375 5.82875 -22 5 C-18.40620629 4.3549601 -16.09571409 5.16550276 -13 7 C-13.2475 6.4225 -13.495 5.845 -13.75 5.25 C-14 3 -14 3 -12.3125 0.8125 C-7.99957095 -2.56790385 -4.79788763 -2.39894382 0 0 Z " fill="#84A297" transform="translate(113,8)"/>
<path d="M0 0 C1.5625 1.625 1.5625 1.625 2.5625 4.625 C3.51125 4.8725 4.46 5.12 5.4375 5.375 C8.5625 6.625 8.5625 6.625 10.375 10 C10.9628125 11.794375 10.9628125 11.794375 11.5625 13.625 C11.81 14.264375 12.0575 14.90375 12.3125 15.5625 C12.72717191 18.98354326 12.07221686 22.22688762 11.5625 25.625 C10.9025 25.625 10.2425 25.625 9.5625 25.625 C9.954375 26.264375 10.34625 26.90375 10.75 27.5625 C11.94998176 32.08550817 10.27619175 35.396051 8.5625 39.625 C8.2325 39.625 7.9025 39.625 7.5625 39.625 C7.0675 36.16 7.0675 36.16 6.5625 32.625 C5.9025 34.605 5.2425 36.585 4.5625 38.625 C4.2325 38.625 3.9025 38.625 3.5625 38.625 C3.57410156 37.50480469 3.58570313 36.38460937 3.59765625 35.23046875 C3.60703622 33.75781417 3.6161362 32.28515778 3.625 30.8125 C3.63756836 29.70551758 3.63756836 29.70551758 3.65039062 28.57617188 C3.66509828 25.32577932 3.59781702 22.73095105 2.5625 19.625 C2.2325 20.285 1.9025 20.945 1.5625 21.625 C0.9025 21.625 0.2425 21.625 -0.4375 21.625 C-1.4275 19.645 -2.4175 17.665 -3.4375 15.625 C-4.55125 16.305625 -5.665 16.98625 -6.8125 17.6875 C-8.7109375 18.84765625 -8.7109375 18.84765625 -10.4375 19.625 C-11.0975 19.295 -11.7575 18.965 -12.4375 18.625 C-12.4375 17.965 -12.4375 17.305 -12.4375 16.625 C-14.7475 17.945 -17.0575 19.265 -19.4375 20.625 C-19.4375 19.305 -19.4375 17.985 -19.4375 16.625 C-20.05625 17.285 -20.675 17.945 -21.3125 18.625 C-23.4375 20.625 -23.4375 20.625 -25.4375 20.625 C-25.7675 19.965 -26.0975 19.305 -26.4375 18.625 C-26.911875 19.12 -27.38625 19.615 -27.875 20.125 C-29.4375 21.625 -29.4375 21.625 -30.4375 21.625 C-30.7675 26.575 -31.0975 31.525 -31.4375 36.625 C-32.4375 34.625 -33.4375 32.625 -34.4375 30.625 C-35.4275 30.625 -36.4175 30.625 -37.4375 30.625 C-38.0975 27.985 -38.7575 25.345 -39.4375 22.625 C-39.7675 22.625 -40.0975 22.625 -40.4375 22.625 C-40.17708333 20.63932292 -39.91666667 18.65364583 -39.65625 16.66796875 C-39.384267 14.47028294 -39.384267 14.47028294 -39.4375 11.625 C-36.58660442 6.37935213 -33.26938569 3.87723075 -28.4375 0.625 C-28.4375 0.295 -28.4375 -0.035 -28.4375 -0.375 C-19.96709969 -2.88474824 -8.04523141 -4.53833567 0 0 Z " fill="#2E2A0E" transform="translate(58.4375,11.375)"/>
<path d="M0 0 C0.66 0 1.32 0 2 0 C2 0.66 2 1.32 2 2 C2.99 2 3.98 2 5 2 C5 2.66 5 3.32 5 4 C5.66 4 6.32 4 7 4 C7.33 5.98 7.66 7.96 8 10 C9.0725 10 10.145 10 11.25 10 C15 11 15 11 16.21484375 12.77734375 C16.85258884 14.19370131 17.44347942 15.6323013 17.98046875 17.08984375 C18.84909321 19.16456948 18.84909321 19.16456948 20.9765625 19.97265625 C23.67523003 21.34282915 24.08486965 22.72767226 25.1875 25.5 C25.51105469 26.2940625 25.83460937 27.088125 26.16796875 27.90625 C26.57982422 28.94265625 26.57982422 28.94265625 27 30 C27.495 30.99 27.495 30.99 28 32 C27.71887936 34.00800456 27.38932033 36.01014051 27 38 C26.01 36.68 25.02 35.36 24 34 C23.66162109 34.88171875 23.66162109 34.88171875 23.31640625 35.78125 C19.95086223 41.45373963 12.0513133 44.67479316 6.125 47.125 C1.0050093 49.25909272 -1.93892371 52.40838557 -5 57 C-5 39.18 -5 21.36 -5 3 C-3.35 2.67 -1.7 2.34 0 2 C0 1.34 0 0.68 0 0 Z " fill="#42541F" transform="translate(5,34)"/>
<path d="M0 0 C0.73476563 0.14824219 1.46953125 0.29648438 2.2265625 0.44921875 C5.08672103 1.01722206 7.4721866 0.96637406 10.375 0.8125 C14.8994057 0.75233503 17.18227793 1.41283085 20.96484375 4.04296875 C25.53254968 6.19093027 31.02713159 5.85044005 36 6 C36.495 10.95 36.495 10.95 37 16 C38.98773438 15.93039063 38.98773438 15.93039063 41.015625 15.859375 C42.76039412 15.82185308 44.50518762 15.78545337 46.25 15.75 C47.12269531 15.71648437 47.99539062 15.68296875 48.89453125 15.6484375 C55.41598332 15.54887335 55.41598332 15.54887335 58.609375 18.015625 C59.06828125 18.67046875 59.5271875 19.3253125 60 20 C57.03 19.67 54.06 19.34 51 19 C55.455 20.98 55.455 20.98 60 23 C60 23.66 60 24.32 60 25 C59.01 25 58.02 25 57 25 C57 25.66 57 26.32 57 27 C51.29565442 30.30112591 45.03393401 29.74925621 38.7890625 28.20703125 C34.76159654 26.90929222 31.0385607 25.62469817 27.40234375 23.4375 C21.02897626 19.6238427 13.82835393 19.81259413 6.6015625 20.02734375 C4 20 4 20 1 19 C1 18.34 1 17.68 1 17 C-0.65 16.67 -2.3 16.34 -4 16 C-4 15.34 -4 14.68 -4 14 C-4.99 14 -5.98 14 -7 14 C-6.63091483 6.74132492 -6.63091483 6.74132492 -3.5 3.0625 C-2.675 2.381875 -1.85 1.70125 -1 1 C-0.67 0.67 -0.34 0.34 0 0 Z " fill="#A86E29" transform="translate(29,142)"/>
<path d="M0 0 C2.375 0.4375 2.375 0.4375 5.375 2.4375 C5.375 3.4275 5.375 4.4175 5.375 5.4375 C6.695 5.4375 8.015 5.4375 9.375 5.4375 C9.705 6.4275 10.035 7.4175 10.375 8.4375 C8.87760417 9.64192708 7.38020833 10.84635417 5.8828125 12.05078125 C4.12207893 13.56020545 4.12207893 13.56020545 2.375 16.4375 C2.705 17.0975 3.035 17.7575 3.375 18.4375 C3.045 19.22125 2.715 20.005 2.375 20.8125 C1.23048506 23.81685172 1.53179627 24.45891019 2.375 27.4375 C2.61115789 28.97515027 2.81913198 30.51737035 3 32.0625 C3.09539063 32.83851562 3.19078125 33.61453125 3.2890625 34.4140625 C3.375 36.4375 3.375 36.4375 2.375 38.4375 C0.30859375 38.8515625 0.30859375 38.8515625 -2.1875 39.0625 C-3.01378906 39.13726562 -3.84007812 39.21203125 -4.69140625 39.2890625 C-5.32949219 39.33804688 -5.96757812 39.38703125 -6.625 39.4375 C-5.635 38.9425 -5.635 38.9425 -4.625 38.4375 C-4.955 36.4575 -5.285 34.4775 -5.625 32.4375 C-6.285 32.4375 -6.945 32.4375 -7.625 32.4375 C-7.625 31.7775 -7.625 31.1175 -7.625 30.4375 C-8.615 30.4375 -9.605 30.4375 -10.625 30.4375 C-10.625 29.7775 -10.625 29.1175 -10.625 28.4375 C-11.285 28.4375 -11.945 28.4375 -12.625 28.4375 C-12.625 29.0975 -12.625 29.7575 -12.625 30.4375 C-14.275 30.7675 -15.925 31.0975 -17.625 31.4375 C-17.625 25.4975 -17.625 19.5575 -17.625 13.4375 C-10.625 9.4375 -10.625 9.4375 -7.625 9.4375 C-7.625 8.1175 -7.625 6.7975 -7.625 5.4375 C-3.8040393 0.63400655 -3.8040393 0.63400655 0 0 Z " fill="#8AA599" transform="translate(17.625,5.5625)"/>
<path d="M0 0 C0.33 0 0.66 0 1 0 C1.10957031 0.76183594 1.21914063 1.52367188 1.33203125 2.30859375 C2.42375194 9.43311236 2.42375194 9.43311236 4.5 16.3125 C6.442535 21.59619519 6.83051434 27.08056836 7.375 32.64453125 C7.68012818 35.95586484 7.68012818 35.95586484 9.5480957 37.65209961 C11.80882005 41.30795735 11.15327382 44.73655293 10.85546875 48.921875 C10.80683182 49.78186096 10.75819489 50.64184692 10.70808411 51.52789307 C10.54956105 54.26973002 10.36883324 57.00958639 10.1875 59.75 C10.07600701 61.61058976 9.96596373 63.471267 9.85742188 65.33203125 C9.58841514 69.88920591 9.299489 74.44473115 9 79 C6.03 79 3.06 79 0 79 C0 52.93 0 26.86 0 0 Z " fill="#41531E" transform="translate(0,113)"/>
<path d="M0 0 C2.28062828 3.42094242 2.21925007 4.68187222 2.125 8.6875 C2.10695313 9.68136719 2.08890625 10.67523438 2.0703125 11.69921875 C2.04710938 12.45847656 2.02390625 13.21773437 2 14 C2.99 13.34 3.98 12.68 5 12 C5.16954002 16.57758042 4.96841847 20.53038032 3.9375 25 C2.91468921 29.74876437 2.93508627 33.24884643 4 38 C4.52078125 38.61359375 5.0415625 39.2271875 5.578125 39.859375 C7.51859908 42.78074807 7.05469127 44.45143947 6.5625 47.875 C6.0331035 52.48187592 5.96954649 55.70021611 8 60 C7.67 59.01 7.34 58.02 7 57 C6.96125079 55.33378384 6.9549714 53.66605828 7 52 C8.94268841 54.91403262 10.46395304 57.85808576 12 61 C11.27103516 61.78503906 11.27103516 61.78503906 10.52734375 62.5859375 C8.05393909 66.49530855 8.58011321 70.57994953 8.50390625 75.1015625 C8.33761719 76.05804688 8.17132813 77.01453125 8 78 C5.96484375 79.3984375 5.96484375 79.3984375 4 80 C4.165 79.05125 4.33 78.1025 4.5 77.125 C5.56752733 69.36972794 5.67042509 63.03498142 2 56 C-4.20988129 56.44356295 -8.60540561 57.91532502 -14 61 C-14.66 60.01 -15.32 59.02 -16 58 C-14.88625 57.608125 -13.7725 57.21625 -12.625 56.8125 C-9.68039334 55.57517033 -9.14117455 55.26393503 -7.5625 52.3125 C-7.376875 51.549375 -7.19125 50.78625 -7 50 C-5.68 50.66 -4.36 51.32 -3 52 C-3.99 50.35 -4.98 48.7 -6 47 C-6.66 47.66 -7.32 48.32 -8 49 C-8.33362655 47.15292209 -8.61498633 45.29636965 -8.875 43.4375 C-9.03742187 42.40496094 -9.19984375 41.37242188 -9.3671875 40.30859375 C-8.96014059 36.64084129 -8.54678395 36.24693034 -6.09375 33.75 C-2.04706265 29.46649419 -1.91226059 25.26257081 -1.625 19.5625 C-1.55667969 18.64017578 -1.48835938 17.71785156 -1.41796875 16.76757812 C-1.25444914 14.5133435 -1.12383371 12.25676264 -1 10 C-4.63 9.67 -8.26 9.34 -12 9 C-9 6 -9 6 -5.4375 5.6875 C-2 6 -2 6 0 8 C0 5.36 0 2.72 0 0 Z " fill="#243124" transform="translate(61,31)"/>
<path d="M0 0 C1.65 0.33 3.3 0.66 5 1 C5 21.46 5 41.92 5 63 C1.82455875 58.76607833 1.6902879 58.4569898 2.0625 53.625 C2.19945249 48.46873862 1.44694708 46.00591147 -2 42 C-3.27230469 40.69675781 -3.27230469 40.69675781 -4.5703125 39.3671875 C-7.64961404 35.66349573 -7.90519561 32.12211629 -8.1875 27.4375 C-8.56069669 22.50015066 -9.10956871 18.61915338 -11 14 C-9.625 11.8125 -9.625 11.8125 -8 10 C-8 9.34 -8 8.68 -8 8 C-7.01 8 -6.02 8 -5 8 C-5 7.01 -5 6.02 -5 5 C-4.34 5 -3.68 5 -3 5 C-3 4.34 -3 3.68 -3 3 C-2.01 3 -1.02 3 0 3 C0 2.01 0 1.02 0 0 Z " fill="#60671B" transform="translate(123,29)"/>
<path d="M0 0 C0.85056945 3.55692677 1.16909807 5.49270578 0 9 C1.093125 8.835 2.18625 8.67 3.3125 8.5 C7 8 7 8 10 8 C10.33 7.01 10.66 6.02 11 5 C12.32 4.34 13.64 3.68 15 3 C15 5.97 15 8.94 15 12 C14.34 12 13.68 12 13 12 C13 12.66 13 13.32 13 14 C12.36191406 14.20496094 11.72382812 14.40992187 11.06640625 14.62109375 C10.24011719 14.89050781 9.41382813 15.15992187 8.5625 15.4375 C7.73878906 15.70433594 6.91507813 15.97117187 6.06640625 16.24609375 C4.03780412 16.82155494 4.03780412 16.82155494 3 18 C1.48071962 18.07179964 -0.04167482 18.08392007 -1.5625 18.0625 C-2.38878906 18.05347656 -3.21507813 18.04445313 -4.06640625 18.03515625 C-5.02353516 18.01775391 -5.02353516 18.01775391 -6 18 C-5.34 16.68 -4.68 15.36 -4 14 C-4.78375 14.185625 -5.5675 14.37125 -6.375 14.5625 C-9 15 -9 15 -11 14 C-11 14.66 -11 15.32 -11 16 C-14.45826342 16.05789006 -17.91640293 16.09355821 -21.375 16.125 C-22.35984375 16.14175781 -23.3446875 16.15851562 -24.359375 16.17578125 C-25.30039063 16.18222656 -26.24140625 16.18867188 -27.2109375 16.1953125 C-28.51490479 16.21102295 -28.51490479 16.21102295 -29.84521484 16.22705078 C-32 16 -32 16 -34 14 C-32.0470182 11.50452325 -31.2293827 11.02867284 -28 10.625 C-27.01 10.41875 -26.02 10.2125 -25 10 C-23.98812105 8.34051852 -22.9873454 6.67419438 -22 5 C-18.40620629 4.3549601 -16.09571409 5.16550276 -13 7 C-13.2475 6.4225 -13.495 5.845 -13.75 5.25 C-14 3 -14 3 -12.3125 0.8125 C-7.99957095 -2.56790385 -4.79788763 -2.39894382 0 0 Z " fill="#B5B596" transform="translate(113,8)"/>
<path d="M0 0 C0.68964844 0.40992188 1.37929687 0.81984375 2.08984375 1.2421875 C7.34534262 4.25562855 12.00531619 6.57894962 17.984375 7.6328125 C20.75638053 8.13779025 23.35298262 9.04978863 26 10 C25.34 11.32 24.68 12.64 24 14 C27.465 13.505 27.465 13.505 31 13 C30.85831863 14.43791516 30.71148957 15.8753237 30.5625 17.3125 C30.48128906 18.11300781 30.40007813 18.91351563 30.31640625 19.73828125 C30 22 30 22 29 25 C19.13592214 25.91758864 9.61090898 22.14934209 1.90234375 16.171875 C-0.19522478 14.65034164 -0.19522478 14.65034164 -4 15 C-5.16585932 11.50242203 -4.75860292 10.38431934 -3.6875 6.9375 C-3.42324219 6.05964844 -3.15898437 5.18179688 -2.88671875 4.27734375 C-2 2 -2 2 0 0 Z " fill="#314541" transform="translate(14,158)"/>
<path d="M0 0 C1.79252055 -0.02908219 3.584757 -0.09260173 5.375 -0.1875 C9.8994057 -0.24766497 12.18227793 0.41283085 15.96484375 3.04296875 C20.53254968 5.19093027 26.02713159 4.85044005 31 5 C30.67 7.31 30.34 9.62 30 12 C28.77023438 12.05607422 28.77023438 12.05607422 27.515625 12.11328125 C26.43796875 12.17902344 25.3603125 12.24476563 24.25 12.3125 C22.64898437 12.39951172 22.64898437 12.39951172 21.015625 12.48828125 C17.75075869 13.04229354 16.5172261 13.95541762 14 16 C8.95811995 16.97584775 5.05769417 17.13798119 0 16 C0.33 15.34 0.66 14.68 1 14 C1.99 14 2.98 14 4 14 C1.66666667 14 -0.66666667 14 -3 14 C-3 13.34 -3 12.68 -3 12 C-3.99 11.67 -4.98 11.34 -6 11 C-4.68 9.68 -3.36 8.36 -2 7 C-2.5775 7.515625 -3.155 8.03125 -3.75 8.5625 C-6 10 -6 10 -8.25 9.6875 C-8.8275 9.460625 -9.405 9.23375 -10 9 C-9.51622419 2.5899705 -9.51622419 2.5899705 -7.25 0 C-4.36757935 -1.28107584 -3.05603679 -0.62449447 0 0 Z " fill="#D29446" transform="translate(34,143)"/>
<path d="M0 0 C3.16417672 1.53773074 6.2132349 3.22411398 9.25 5 C10.14203125 5.515625 11.0340625 6.03125 11.953125 6.5625 C12.96632813 7.2740625 12.96632813 7.2740625 14 8 C14 8.66 14 9.32 14 10 C20.6 11.32 27.2 12.64 34 14 C34 14.99 34 15.98 34 17 C26.62735653 21.72891778 20.08490152 21.47683683 11.5 21.25 C10.200625 21.23195312 8.90125 21.21390625 7.5625 21.1953125 C4.37422849 21.14842615 1.187507 21.08280893 -2 21 C-2.05791844 17.87507749 -2.09356746 14.75029234 -2.125 11.625 C-2.14175781 10.73554688 -2.15851562 9.84609375 -2.17578125 8.9296875 C-2.18222656 8.07890625 -2.18867188 7.228125 -2.1953125 6.3515625 C-2.20578613 5.56604004 -2.21625977 4.78051758 -2.22705078 3.97119141 C-2 2 -2 2 0 0 Z " fill="#2E2C11" transform="translate(11,171)"/>
<path d="M0 0 C0.66 0 1.32 0 2 0 C2 0.66 2 1.32 2 2 C2.99 2 3.98 2 5 2 C5 2.66 5 3.32 5 4 C5.66 4 6.32 4 7 4 C7.33 5.98 7.66 7.96 8 10 C10.31 10.33 12.62 10.66 15 11 C15.33 12.32 15.66 13.64 16 15 C15.34 15 14.68 15 14 15 C13.67 15.66 13.34 16.32 13 17 C10.9375 17.625 10.9375 17.625 9 18 C9.33 18.99 9.66 19.98 10 21 C8.02 20.67 6.04 20.34 4 20 C4 20.99 4 21.98 4 23 C1.00645224 23.77610498 -1.95724864 24.39144973 -5 25 C-5 17.74 -5 10.48 -5 3 C-3.35 2.67 -1.7 2.34 0 2 C0 1.34 0 0.68 0 0 Z " fill="#666C1C" transform="translate(5,34)"/>
<path d="M0 0 C2.375 0.4375 2.375 0.4375 5.375 2.4375 C5.375 3.4275 5.375 4.4175 5.375 5.4375 C6.695 5.4375 8.015 5.4375 9.375 5.4375 C9.705 6.4275 10.035 7.4175 10.375 8.4375 C8.87760417 9.64192708 7.38020833 10.84635417 5.8828125 12.05078125 C4.12207893 13.56020545 4.12207893 13.56020545 2.375 16.4375 C2.375 17.4275 2.375 18.4175 2.375 19.4375 C-0.265 19.4375 -2.905 19.4375 -5.625 19.4375 C-5.625 18.7775 -5.625 18.1175 -5.625 17.4375 C-9.585 17.7675 -13.545 18.0975 -17.625 18.4375 C-17.625 16.7875 -17.625 15.1375 -17.625 13.4375 C-11 9.4375 -11 9.4375 -7.625 9.4375 C-7.625 8.1175 -7.625 6.7975 -7.625 5.4375 C-3.8040393 0.63400655 -3.8040393 0.63400655 0 0 Z " fill="#D3C598" transform="translate(17.625,5.5625)"/>
<path d="M0 0 C2.28062828 3.42094242 2.21925007 4.68187222 2.125 8.6875 C2.10695313 9.68136719 2.08890625 10.67523438 2.0703125 11.69921875 C2.03550781 12.83810547 2.03550781 12.83810547 2 14 C2.99 13.34 3.98 12.68 5 12 C5.16954002 16.57758042 4.96841847 20.53038032 3.9375 25 C2.91131106 29.71610237 2.98823111 33.27841185 4 38 C4.66 38.66 5.32 39.32 6 40 C6.125 42.625 6.125 42.625 6 45 C-2.35010941 43.66958425 -2.35010941 43.66958425 -5.0625 40.875 C-5.371875 40.25625 -5.68125 39.6375 -6 39 C-6.66 39.99 -7.32 40.98 -8 42 C-8.875 39.9375 -8.875 39.9375 -9 37 C-7.74804687 35.54882812 -7.74804687 35.54882812 -6.09375 33.96875 C-2.13140898 29.54671234 -1.91512323 25.31937391 -1.625 19.5625 C-1.55667969 18.64017578 -1.48835938 17.71785156 -1.41796875 16.76757812 C-1.25444914 14.5133435 -1.12383371 12.25676264 -1 10 C-4.63 9.67 -8.26 9.34 -12 9 C-9 6 -9 6 -5.4375 5.6875 C-2 6 -2 6 0 8 C0 5.36 0 2.72 0 0 Z " fill="#47511E" transform="translate(61,31)"/>
<path d="M0 0 C-0.33 0.99 -0.66 1.98 -1 3 C-0.34 3 0.32 3 1 3 C1 4.65 1 6.3 1 8 C0.34 8 -0.32 8 -1 8 C-1.33 8.66 -1.66 9.32 -2 10 C-0.68 10 0.64 10 2 10 C2 10.66 2 11.32 2 12 C0.02 12.66 -1.96 13.32 -4 14 C-4 14.99 -4 15.98 -4 17 C-5.65 17.33 -7.3 17.66 -9 18 C-9 17.34 -9 16.68 -9 16 C-10.11375 16.020625 -11.2275 16.04125 -12.375 16.0625 C-16 16 -16 16 -18 15 C-18.66 16.32 -19.32 17.64 -20 19 C-20.66 18.67 -21.32 18.34 -22 18 C-22.621881 9.76007678 -22.621881 9.76007678 -20.3125 6.9375 C-17.69914404 5.87803137 -15.79491785 5.76709018 -13 6 C-12.67 5.01 -12.34 4.02 -12 3 C-9.525 3.99 -9.525 3.99 -7 5 C-7 3.68 -7 2.36 -7 1 C-4.53721199 -0.231394 -2.7204945 -0.07159196 0 0 Z " fill="#62691A" transform="translate(22,56)"/>
<path d="M0 0 C1.98 0 3.96 0 6 0 C6 13.53 6 27.06 6 41 C2.82455875 36.76607833 2.6902879 36.4569898 3.0625 31.625 C3.19945249 26.46873862 2.44694708 24.00591147 -1 20 C-1.45503906 19.52304688 -1.91007812 19.04609375 -2.37890625 18.5546875 C-5.11852384 15.57310938 -5.98020965 14.24540033 -6.3125 10.125 C-6.209375 9.09375 -6.10625 8.0625 -6 7 C-4.68 6.67 -3.36 6.34 -2 6 C-2 5.34 -2 4.68 -2 4 C-1.34 4 -0.68 4 0 4 C0 2.68 0 1.36 0 0 Z " fill="#3E531F" transform="translate(122,51)"/>
<path d="M0 0 C2.9192476 0.43248113 4.05786193 1.05160659 6.3125 3.0625 C9.80256287 5.57859184 11.77545741 5.45262956 16 5 C17.67996742 4.36759847 19.349792 3.70642466 21 3 C21.57860369 9.99467577 21.31193454 14.76708966 17.2890625 20.63671875 C16.86367188 21.08660156 16.43828125 21.53648438 16 22 C15.34 22 14.68 22 14 22 C12.69342506 20.48449078 11.45394299 18.91075765 10.25 17.3125 C7.85465825 14.20030415 5.71187427 11.57610663 2.5 9.3125 C0 7 0 7 -0.375 3.1875 C-0.25125 2.135625 -0.1275 1.08375 0 0 Z " fill="#AE722B" transform="translate(32,66)"/>
<path d="M0 0 C0.31087045 3.96359827 0.32482417 6.38933056 -1.5625 9.9375 C-4 12 -4 12 -7.75 12.3125 C-8.8225 12.209375 -9.895 12.10625 -11 12 C-11 13.32 -11 14.64 -11 16 C-13.79192205 16.05380578 -16.5828141 16.09357669 -19.375 16.125 C-20.1690625 16.14175781 -20.963125 16.15851562 -21.78125 16.17578125 C-23.85492015 16.19335473 -25.92883241 16.10335168 -28 16 C-28.66 15.34 -29.32 14.68 -30 14 C-28.0470182 11.50452325 -27.2293827 11.02867284 -24 10.625 C-23.01 10.41875 -22.02 10.2125 -21 10 C-19.98812105 8.34051852 -18.9873454 6.67419438 -18 5 C-14.40620629 4.3549601 -12.09571409 5.16550276 -9 7 C-9.309375 6.071875 -9.309375 6.071875 -9.625 5.125 C-9.74875 4.42375 -9.8725 3.7225 -10 3 C-6.84916414 -0.15083586 -4.41812253 0 0 0 Z " fill="#CBC197" transform="translate(109,8)"/>
<path d="M0 0 C0.66 1.32 1.32 2.64 2 4 C1.01 4.99 0.02 5.98 -1 7 C0.8871875 7.1546875 0.8871875 7.1546875 2.8125 7.3125 C5.60499657 7.64858808 6.74433121 7.80025876 9 9.5625 C9.33 10.036875 9.66 10.51125 10 11 C9.01 11 8.02 11 7 11 C7.3403125 12.11375 7.3403125 12.11375 7.6875 13.25 C8 16 8 16 6.75 18.3125 C5 20 5 20 2 20 C2 18.35 2 16.7 2 15 C-0.49552484 15.78130071 -0.49552484 15.78130071 -3 17 C-3.33 17.99 -3.66 18.98 -4 20 C-4.66 20 -5.32 20 -6 20 C-5.34 21.98 -4.68 23.96 -4 26 C-6.65877957 25.63327178 -7.79835472 25.20911362 -9.6875 23.25 C-11.11030557 20.81090474 -11.47955956 18.75089949 -12 16 C-12.66 15.67 -13.32 15.34 -14 15 C-13.34 15 -12.68 15 -12 15 C-12 14.34 -12 13.68 -12 13 C-10.68 12.67 -9.36 12.34 -8 12 C-7.01 13.485 -7.01 13.485 -6 15 C-5.95101563 14.22914062 -5.90203125 13.45828125 -5.8515625 12.6640625 C-5.77679688 11.66117188 -5.70203125 10.65828125 -5.625 9.625 C-5.52058594 8.12839844 -5.52058594 8.12839844 -5.4140625 6.6015625 C-5 4 -5 4 -3 2 C-2.67 2.33 -2.34 2.66 -2 3 C-1.34 2.01 -0.68 1.02 0 0 Z " fill="#D99F4F" transform="translate(32,29)"/>
<path d="M0 0 C1 3 1 3 1 6 C2.32 6.66 3.64 7.32 5 8 C5.08153933 9.58246707 5.13943557 11.16616273 5.1875 12.75 C5.23970703 14.07257813 5.23970703 14.07257813 5.29296875 15.421875 C4.94577171 18.47720898 3.98132585 19.7042572 2 22 C1.67 22.66 1.34 23.32 1 24 C0 23 0 23 -0.0625 20.4375 C-0.041875 19.633125 -0.02125 18.82875 0 18 C0.66 18 1.32 18 2 18 C2 17.01 2 16.02 2 15 C-0.31 15.33 -2.62 15.66 -5 16 C-4.67 17.32 -4.34 18.64 -4 20 C-4.66 20 -5.32 20 -6 20 C-6.33 21.98 -6.66 23.96 -7 26 C-7.33 26 -7.66 26 -8 26 C-8.10957031 25.43152344 -8.21914062 24.86304688 -8.33203125 24.27734375 C-9.14121388 20.33669014 -9.99863762 16.76004992 -11.75 13.125 C-12.1625 12.09375 -12.575 11.0625 -13 10 C-12.34 9.01 -11.68 8.02 -11 7 C-9.68 7 -8.36 7 -7 7 C-6.67 6.01 -6.34 5.02 -6 4 C-4.35 3.67 -2.7 3.34 -1 3 C-0.67 2.01 -0.34 1.02 0 0 Z " fill="#3B4F1E" transform="translate(123,153)"/>
<path d="M0 0 C1.9453125 0.75 1.9453125 0.75 4 2 C6.16353484 7.76942624 5.09588969 15.3432365 3 21 C0 23 0 23 -3.1875 22.625 C-4.115625 22.41875 -5.04375 22.2125 -6 22 C-6 21.01 -6 20.02 -6 19 C-6.99 19 -7.98 19 -9 19 C-8.00670796 15.2074304 -7.01424971 13.01668258 -4.4375 10 C-1.8247917 6.78435901 -1.37580198 5.03987129 -1 1 C-0.67 0.67 -0.34 0.34 0 0 Z " fill="#A36A26" transform="translate(106,137)"/>
<path d="M0 0 C2 1 2 1 2.90625 3.13671875 C3.04278851 7.30683251 0.96324061 9.67396758 -1.5 12.8125 C-1.9228125 13.40998047 -2.345625 14.00746094 -2.78125 14.62304688 C-4.09375 16.33203125 -4.09375 16.33203125 -7 19 C-10.52303939 19.42557724 -12.80756258 19.59621871 -16 18 C-15.67 15.36 -15.34 12.72 -15 10 C-14.01 9.67 -13.02 9.34 -12 9 C-12 9.66 -12 10.32 -12 11 C-11.34 11 -10.68 11 -10 11 C-10 9.68 -10 8.36 -10 7 C-8.906875 6.401875 -7.81375 5.80375 -6.6875 5.1875 C-4.08925871 3.70955303 -1.95650507 2.30177067 0 0 Z " fill="#CD9143" transform="translate(94,84)"/>
<path d="M0 0 C1.65 1.65 3.3 3.3 5 5 C4.67 5.66 4.34 6.32 4 7 C3.34 7 2.68 7 2 7 C2 11.29 2 15.58 2 20 C2.99 20.33 3.98 20.66 5 21 C5.33 21.66 5.66 22.32 6 23 C7.98 22.67 9.96 22.34 12 22 C10.67164736 26.95113255 8.64357457 31.34701051 5 35 C3.35 35.66 1.7 36.32 0 37 C0 32.71 0 28.42 0 24 C-1.98 24 -3.96 24 -6 24 C-3 22 -3 22 -1 21 C-0.06447437 18.27055324 0.11938941 15.75940177 0.09765625 12.890625 C0.09443359 12.13652344 0.09121094 11.38242188 0.08789062 10.60546875 C0.07951172 9.82816406 0.07113281 9.05085938 0.0625 8.25 C0.05573242 7.06083984 0.05573242 7.06083984 0.04882812 5.84765625 C0.03708565 3.89840492 0.01915146 1.94919262 0 0 Z " fill="#30443F" transform="translate(47,103)"/>
<path d="M0 0 C0.33 0.99 0.66 1.98 1 3 C1.66 3.33 2.32 3.66 3 4 C1.54682061 7.3907519 -0.41300312 9.41300312 -3 12 C-3.33 12.99 -3.66 13.98 -4 15 C-4.66 15 -5.32 15 -6 15 C-6 15.66 -6 16.32 -6 17 C-10.75 16.25 -10.75 16.25 -13 14 C-13 9.47111783 -12.23772364 6.83064076 -9.125 3.625 C-6.23093439 0.90545091 -4.06186288 0 0 0 Z " fill="#334641" transform="translate(27,136)"/>
<path d="M0 0 C8.72630608 -0.09744014 17.33003296 -0.16711095 26 1 C26 1.99 26 2.98 26 4 C25.01 4.495 25.01 4.495 24 5 C24 5.66 24 6.32 24 7 C14.28612657 8.89454978 8.37471952 7.12283375 0 2 C0 1.34 0 0.68 0 0 Z " fill="#D29445" transform="translate(54,160)"/>
<path d="M0 0 C0 0.99 0 1.98 0 3 C0.99 3 1.98 3 3 3 C2.66666667 4.33333333 2.33333333 5.66666667 2 7 C1.9175 7.70125 1.835 8.4025 1.75 9.125 C1 11 1 11 -1.5 12.125 C-2.325 12.41375 -3.15 12.7025 -4 13 C-4.33 13.66 -4.66 14.32 -5 15 C-6.32 15 -7.64 15 -9 15 C-9.33 15.99 -9.66 16.98 -10 18 C-11.32 16.68 -12.64 15.36 -14 14 C-13.01 13.67 -12.02 13.34 -11 13 C-11 12.01 -11 11.02 -11 10 C-10.01 10 -9.02 10 -8 10 C-8 9.34 -8 8.68 -8 8 C-8.66 8 -9.32 8 -10 8 C-9.34 6.35 -8.68 4.7 -8 3 C-6.68 3 -5.36 3 -4 3 C-4 2.34 -4 1.68 -4 1 C-2 0 -2 0 0 0 Z " fill="#5F6519" transform="translate(121,145)"/>
<path d="M0 0 C0.66 3.96 1.32 7.92 2 12 C1.01 12 0.02 12 -1 12 C-1.66 11.01 -2.32 10.02 -3 9 C-3.47050781 9.433125 -3.94101563 9.86625 -4.42578125 10.3125 C-5.04839844 10.869375 -5.67101562 11.42625 -6.3125 12 C-6.92738281 12.556875 -7.54226562 13.11375 -8.17578125 13.6875 C-10 15 -10 15 -13 15 C-13 16.32 -13 17.64 -13 19 C-13.66 19 -14.32 19 -15 19 C-15 18.34 -15 17.68 -15 17 C-15.66 17.33 -16.32 17.66 -17 18 C-17.73075648 20.3140622 -18.40138258 22.64828869 -19 25 C-19.33 25 -19.66 25 -20 25 C-20.3125 21.8125 -20.3125 21.8125 -20 18 C-17.5 15.25 -17.5 15.25 -15 13 C-15 12.01 -15 11.02 -15 10 C-12.8125 8.5625 -12.8125 8.5625 -10 7 C-8.3174387 5.68678142 -6.65002828 4.35386936 -5 3 C-1.14285714 0 -1.14285714 0 0 0 Z " fill="#AD722B" transform="translate(97,76)"/>
<path d="M0 0 C4.45930342 3.25408628 7.51132584 5.91138953 8.40234375 11.54296875 C8.65826433 14.02855355 8.85952991 16.50544502 9 19 C8.01 19 7.02 19 6 19 C5.34 19.66 4.68 20.32 4 21 C3.03644756 19.92130607 2.07938583 18.83681257 1.125 17.75 C0.59132813 17.14671875 0.05765625 16.5434375 -0.4921875 15.921875 C-1.99773916 14.0028817 -3.07578593 12.25508234 -4 10 C-3.625 7.75 -3.625 7.75 -3 6 C-1.35 7.65 0.3 9.3 2 11 C1.67 9.9275 1.34 8.855 1 7.75 C0 4 0 4 0 0 Z " fill="#2B280B" transform="translate(117,70)"/>
<path d="M0 0 C0.99 0 1.98 0 3 0 C3.33 1.65 3.66 3.3 4 5 C4.66 5 5.32 5 6 5 C6 4.34 6 3.68 6 3 C6.99 2.67 7.98 2.34 9 2 C9 6.62 9 11.24 9 16 C6.03 16 3.06 16 0 16 C0 10.72 0 5.44 0 0 Z " fill="#766C17" transform="translate(0,176)"/>
<path d="M0 0 C2.50037734 2.17424117 3.43628586 3.73045798 4 7 C2.68 6.34 1.36 5.68 0 5 C-0.5259375 6.1446875 -0.5259375 6.1446875 -1.0625 7.3125 C-3.62284684 10.86394884 -5.83374223 11.77885548 -10 13 C-12.625 12.1875 -12.625 12.1875 -15 11 C-18.22092233 10.76432276 -20.90921265 11.08421116 -24 12 C-25.5625 9.625 -25.5625 9.625 -27 7 C-26.67 6.34 -26.34 5.68 -26 5 C-24.68 6.65 -23.36 8.3 -22 10 C-20.02 7.36 -18.04 4.72 -16 2 C-13.03595495 4.80804268 -10.55500981 7.18315774 -9 11 C-8.34 11 -7.68 11 -7 11 C-6.71125 10.4225 -6.4225 9.845 -6.125 9.25 C-5.08333333 7.16666667 -4.04166667 5.08333333 -3 3 C-2.34 3 -1.68 3 -1 3 C-0.67 2.01 -0.34 1.02 0 0 Z " fill="#33443C" transform="translate(55,77)"/>
<path d="M0 0 C1.65 0.33 3.3 0.66 5 1 C5.72138728 8.09364162 5.72138728 8.09364162 2.5625 12.0625 C-0.32088685 14.13687903 -2.38834919 14.18705333 -5.875 13.8125 C-7.25507163 13.56882399 -8.63259929 13.30690549 -10 13 C-9.34 11.35 -8.68 9.7 -8 8 C-7.01 8 -6.02 8 -5 8 C-5 7.01 -5 6.02 -5 5 C-4.34 5 -3.68 5 -3 5 C-3 4.34 -3 3.68 -3 3 C-2.01 3 -1.02 3 0 3 C0 2.01 0 1.02 0 0 Z " fill="#686E1E" transform="translate(123,29)"/>
<path d="M0 0 C2.28062828 3.42094242 2.21925007 4.68187222 2.125 8.6875 C2.10695313 9.68136719 2.08890625 10.67523438 2.0703125 11.69921875 C2.03550781 12.83810547 2.03550781 12.83810547 2 14 C2.99 13.34 3.98 12.68 5 12 C5.41750113 18.05376634 5.11311805 21.181776 1 26 C0.01 26.33 -0.98 26.66 -2 27 C-1.67 21.39 -1.34 15.78 -1 10 C-4.63 9.67 -8.26 9.34 -12 9 C-9 6 -9 6 -5.4375 5.6875 C-2 6 -2 6 0 8 C0 5.36 0 2.72 0 0 Z " fill="#AE742D" transform="translate(61,31)"/>
<path d="M0 0 C0.33 0 0.66 0 1 0 C1.10957031 0.76183594 1.21914063 1.52367188 1.33203125 2.30859375 C2.21788195 8.07742637 3.35090989 13.40282934 5.3359375 18.88671875 C6.38540319 22.22648897 6.68368868 25.52057545 7 29 C5.68 29 4.36 29 3 29 C2.67 29.99 2.34 30.98 2 32 C1.34 32 0.68 32 0 32 C0 21.44 0 10.88 0 0 Z " fill="#394C20" transform="translate(0,113)"/>
<path d="M0 0 C2.03956128 2.5494516 4.07468188 5.09731275 6.0625 7.6875 C7.96756018 10.18171087 7.96756018 10.18171087 11 12 C13.80127043 12.20497101 15.47454232 12.26272884 18 11 C19.34516765 17.35897436 19.34516765 17.35897436 17.6875 20.4375 C16 22 16 22 14 22 C12.69342506 20.48449078 11.45394299 18.91075765 10.25 17.3125 C7.85465825 14.20030415 5.71187427 11.57610663 2.5 9.3125 C0 7 0 7 -0.375 3.1875 C-0.25125 2.135625 -0.1275 1.08375 0 0 Z " fill="#D89C4B" transform="translate(32,66)"/>
<path d="M0 0 C1.61648437 0.45826172 1.61648437 0.45826172 3.265625 0.92578125 C4.08546875 1.17714844 4.9053125 1.42851562 5.75 1.6875 C1.16242118 5.71900866 -4.12893943 8.74579837 -10.25 9.6875 C-10.58 9.3575 -10.91 9.0275 -11.25 8.6875 C-10.90048003 2.3961406 -10.90048003 2.3961406 -8.58984375 -0.12109375 C-5.28311066 -1.80482262 -3.50480057 -1.02858278 0 0 Z " fill="#C3893F" transform="translate(35.25,143.3125)"/>
<path d="M0 0 C0.66 0 1.32 0 2 0 C2 0.66 2 1.32 2 2 C2.99 2 3.98 2 5 2 C5 2.66 5 3.32 5 4 C5.66 4.33 6.32 4.66 7 5 C6.34 5 5.68 5 5 5 C5 5.66 5 6.32 5 7 C4.01 7 3.02 7 2 7 C2 7.99 2 8.98 2 10 C1.34 10 0.68 10 0 10 C0 10.99 0 11.98 0 13 C-0.99 13 -1.98 13 -3 13 C-3.33 13.99 -3.66 14.98 -4 16 C-4.33 16 -4.66 16 -5 16 C-5 11.71 -5 7.42 -5 3 C-3.35 2.67 -1.7 2.34 0 2 C0 1.34 0 0.68 0 0 Z " fill="#676D1D" transform="translate(5,34)"/>
<path d="M0 0 C0.99 0 1.98 0 3 0 C3 8.91 3 17.82 3 27 C-0.17544125 22.76607833 -0.3097121 22.4569898 0.0625 17.625 C0.2191126 12.51806747 -0.61332126 9.98432793 -4 6 C-4.66 5.01 -5.32 4.02 -6 3 C-5.67 2.34 -5.34 1.68 -5 1 C-4.01 1 -3.02 1 -2 1 C-2 1.66 -2 2.32 -2 3 C-1.34 3 -0.68 3 0 3 C0 2.01 0 1.02 0 0 Z " fill="#3C501E" transform="translate(125,65)"/>
<path d="M0 0 C0.99 0.33 1.98 0.66 3 1 C2.67 1.598125 2.34 2.19625 2 2.8125 C0.79212012 5.05386471 0.79212012 5.05386471 1 8 C-1.64 8 -4.28 8 -7 8 C-7 7.34 -7 6.68 -7 6 C-12.94 6.495 -12.94 6.495 -19 7 C-17 4 -17 4 -14.5390625 3.3046875 C-13.57742187 3.16289062 -12.61578125 3.02109375 -11.625 2.875 C-7.66621399 2.28435894 -7.66621399 2.28435894 -3.7734375 1.3828125 C-2 1 -2 1 0 2 C0 1.34 0 0.68 0 0 Z " fill="#BDB996" transform="translate(19,17)"/>
<path d="M0 0 C3.63 0.33 7.26 0.66 11 1 C11 3.31 11 5.62 11 8 C7.04 8 3.08 8 -1 8 C-0.67 5.36 -0.34 2.72 0 0 Z " fill="#776C18" transform="translate(117,184)"/>
<path d="M0 0 C2.64 0 5.28 0 8 0 C8 0.99 8 1.98 8 3 C7.34 3 6.68 3 6 3 C6.11362262 4.4800841 6.24122908 5.95910074 6.375 7.4375 C6.44460937 8.26121094 6.51421875 9.08492187 6.5859375 9.93359375 C6.72257812 10.61550781 6.85921875 11.29742187 7 12 C7.66 12.33 8.32 12.66 9 13 C6.36 13.33 3.72 13.66 1 14 C1 13.34 1 12.68 1 12 C1.66 12 2.32 12 3 12 C3 11.34 3 10.68 3 10 C1.68 9.34 0.36 8.68 -1 8 C-0.4740625 7.13375 -0.4740625 7.13375 0.0625 6.25 C1.14917407 3.64198224 0.93065133 2.60582371 0 0 Z " fill="#4A571A" transform="translate(117,168)"/>
<path d="M0 0 C0.70125 0.185625 1.4025 0.37125 2.125 0.5625 C5.02303951 1.15593996 5.02303951 1.15593996 8 0.5 C11.04493258 -0.00748876 13.044163 0.21757256 16 1 C16 1.66 16 2.32 16 3 C15.04287109 3.30744141 15.04287109 3.30744141 14.06640625 3.62109375 C13.24011719 3.89050781 12.41382812 4.15992188 11.5625 4.4375 C10.32693359 4.83775391 10.32693359 4.83775391 9.06640625 5.24609375 C7.03780412 5.82155494 7.03780412 5.82155494 6 7 C4.48071962 7.07179964 2.95832518 7.08392007 1.4375 7.0625 C0.61121094 7.05347656 -0.21507813 7.04445313 -1.06640625 7.03515625 C-1.70449219 7.02355469 -2.34257813 7.01195312 -3 7 C-2.01 4.69 -1.02 2.38 0 0 Z " fill="#B5B596" transform="translate(110,19)"/>
<path d="M0 0 C0.33 0 0.66 0 1 0 C1.99 3.63 2.98 7.26 4 11 C0.37 11 -3.26 11 -7 11 C-6.67 10.34 -6.34 9.68 -6 9 C-8.475 8.01 -8.475 8.01 -11 7 C-7.25 4 -7.25 4 -5 4 C-4.67 3.01 -4.34 2.02 -4 1 C-3 3 -3 3 -3 4 C-2.2884375 3.01 -2.2884375 3.01 -1.5625 2 C-1.046875 1.34 -0.53125 0.68 0 0 Z " fill="#8D6429" transform="translate(91,45)"/>
<path d="M0 0 C1.67542976 0.28604898 3.34385343 0.61781233 5 1 C4.7128051 4.73353364 4.46797134 7.32404139 2.3125 10.4375 C-0.62436479 12.4218681 -2.526511 12.31577173 -6 12 C-5.67 10.35 -5.34 8.7 -5 7 C-3.68 7 -2.36 7 -1 7 C-1.020625 6.030625 -1.04125 5.06125 -1.0625 4.0625 C-1 1 -1 1 0 0 Z " fill="#B4772E" transform="translate(103,63)"/>
<path d="M0 0 C1.0448029 3.13440869 1.15317663 4.02096037 0 7 C-3 9 -3 9 -6.1875 8.625 C-7.5796875 8.315625 -7.5796875 8.315625 -9 8 C-9 7.01 -9 6.02 -9 5 C-9.99 5 -10.98 5 -12 5 C-11.34 3.68 -10.68 2.36 -10 1 C-8.906875 1.020625 -7.81375 1.04125 -6.6875 1.0625 C-3.05615809 1.18544452 -3.05615809 1.18544452 0 0 Z " fill="#9C6624" transform="translate(109,151)"/>
<path d="M0 0 C0 2.97 0 5.94 0 9 C-1.381875 8.979375 -2.76375 8.95875 -4.1875 8.9375 C-6.93474439 8.92456164 -9.17656237 9.03838312 -11.875 9.625 C-14 10 -14 10 -17 8 C-15.68 7.67 -14.36 7.34 -13 7 C-13 6.34 -13 5.68 -13 5 C-10.36 5 -7.72 5 -5 5 C-4.67 4.01 -4.34 3.02 -4 2 C-1 0 -1 0 0 0 Z " fill="#D4C698" transform="translate(128,11)"/>
<path d="M0 0 C2.6875 -0.3125 2.6875 -0.3125 5 0 C4.67 0.66 4.34 1.32 4 2 C3.01 2.33 2.02 2.66 1 3 C0.29848848 4.3153341 -0.36525925 5.65117592 -1 7 C-2.625 8.75 -2.625 8.75 -4 10 C-1.36 9.34 1.28 8.68 4 8 C4.99 9.485 4.99 9.485 6 11 C3.37472811 11.05382106 0.75055287 11.09358313 -1.875 11.125 C-2.62136719 11.14175781 -3.36773437 11.15851562 -4.13671875 11.17578125 C-6.09194461 11.1933959 -8.04742021 11.10320189 -10 11 C-10.66 10.34 -11.32 9.68 -12 9 C-10.0470182 6.50452325 -9.2293827 6.02867284 -6 5.625 C-5.01 5.41875 -4.02 5.2125 -3 5 C-1.98812105 3.34051852 -0.9873454 1.67419438 0 0 Z " fill="#BFBA97" transform="translate(91,13)"/>
<path d="M0 0 C1.65 0.33 3.3 0.66 5 1 C5.1875 3.375 5.1875 3.375 5 6 C4.01 6.66 3.02 7.32 2 8 C1.67 8.99 1.34 9.98 1 11 C-0.875 11.625 -0.875 11.625 -3 12 C-3.99 12.33 -4.98 12.66 -6 13 C-6 11.02 -6 9.04 -6 7 C-5.01 7 -4.02 7 -3 7 C-2.67 5.68 -2.34 4.36 -2 3 C-1.34 3 -0.68 3 0 3 C0 2.01 0 1.02 0 0 Z " fill="#5D6419" transform="translate(6,153)"/>
<path d="M0 0 C1.32 0 2.64 0 4 0 C6.66436316 3.33045394 7.3619323 5.7774565 7 10 C2.545 9.01 2.545 9.01 -2 8 C-2.33 6.35 -2.66 4.7 -3 3 C-2.01 2.67 -1.02 2.34 0 2 C0 1.34 0 0.68 0 0 Z " fill="#60671A" transform="translate(60,66)"/>
<path d="M0 0 C0.99 0.33 1.98 0.66 3 1 C4.125 3.4375 4.125 3.4375 5 6 C5.33 6.66 5.66 7.32 6 8 C5.34 8 4.68 8 4 8 C4.66 9.98 5.32 11.96 6 14 C3.34122043 13.63327178 2.20164528 13.20911362 0.3125 11.25 C-1.11030557 8.81090474 -1.47955956 6.75089949 -2 4 C-2.66 3.67 -3.32 3.34 -4 3 C-3.34 3 -2.68 3 -2 3 C-2 2.34 -2 1.68 -2 1 C-1.34 0.67 -0.68 0.34 0 0 Z " fill="#C7934A" transform="translate(22,41)"/>
<path d="M0 0 C3.71509263 1.23836421 5.28882864 3.22104936 8 6 C8.99 6.66 9.98 7.32 11 8 C11 8.66 11 9.32 11 10 C7.62902617 11.49821059 5.79557881 12 2 12 C1.34 8.04 0.68 4.08 0 0 Z " fill="#30443F" transform="translate(48,171)"/>
<path d="M0 0 C1.65 1.65 3.3 3.3 5 5 C4.67 5.66 4.34 6.32 4 7 C3.34 7 2.68 7 2 7 C2 11.29 2 15.58 2 20 C2.99 20.33 3.98 20.66 5 21 C4.67 21.99 4.34 22.98 4 24 C0.66666667 24 -2.66666667 24 -6 24 C-3 22 -3 22 -1 21 C-0.06447437 18.27055324 0.11938941 15.75940177 0.09765625 12.890625 C0.09443359 12.13652344 0.09121094 11.38242188 0.08789062 10.60546875 C0.07951172 9.82816406 0.07113281 9.05085938 0.0625 8.25 C0.05573242 7.06083984 0.05573242 7.06083984 0.04882812 5.84765625 C0.03708565 3.89840492 0.01915146 1.94919262 0 0 Z " fill="#2B3C34" transform="translate(47,103)"/>
<path d="M0 0 C0.66 0 1.32 0 2 0 C2.33 1.65 2.66 3.3 3 5 C2.34 5 1.68 5 1 5 C0.67 5.99 0.34 6.98 0 8 C-0.66 8.66 -1.32 9.32 -2 10 C-2 10.33 -2 10.66 -2 11 C-4.64 11.33 -7.28 11.66 -10 12 C-9.34 10.68 -8.68 9.36 -8 8 C-7.01 8 -6.02 8 -5 8 C-5 7.01 -5 6.02 -5 5 C-4.34 5 -3.68 5 -3 5 C-3 4.01 -3 3.02 -3 2 C-2.01 2 -1.02 2 0 2 C0 1.34 0 0.68 0 0 Z " fill="#4A5B1F" transform="translate(10,39)"/>
<path d="M0 0 C6.93 0 13.86 0 21 0 C21.33 0.66 21.66 1.32 22 2 C17.94960123 3.15317236 13.94014458 3.34744535 9.75390625 3.62109375 C6.89739675 4.01411704 4.62222648 4.82451916 2 6 C1.34 4.02 0.68 2.04 0 0 Z " fill="#749694" transform="translate(66,17)"/>
<path d="M0 0 C2.69082872 0.17635452 5.32851446 0.61835921 8 1 C8 1.99 8 2.98 8 4 C8.66 4.33 9.32 4.66 10 5 C9.01 5 8.02 5 7 5 C7 5.99 7 6.98 7 8 C6.34 8 5.68 8 5 8 C5 7.34 5 6.68 5 6 C4.01 6 3.02 6 2 6 C1.67 6.66 1.34 7.32 1 8 C-1 6 -1 6 -1.1875 3.4375 C-1 1 -1 1 0 0 Z " fill="#5F671A" transform="translate(118,60)"/>
<path d="M0 0 C0.66 0 1.32 0 2 0 C2.66 4.29 3.32 8.58 4 13 C2.02 13 0.04 13 -2 13 C-2 10.03 -2 7.06 -2 4 C-1.34 4 -0.68 4 0 4 C0 2.68 0 1.36 0 0 Z " fill="#222A18" transform="translate(67,134)"/>
<path d="M0 0 C3.61355789 2.63692062 6.14096864 4.89056226 8 9 C8.1875 12.3125 8.1875 12.3125 8 15 C5 14 5 14 3.61328125 11.85546875 C3.18402344 10.97503906 2.75476563 10.09460938 2.3125 9.1875 C1.87550781 8.31480469 1.43851562 7.44210938 0.98828125 6.54296875 C0 4 0 4 0 0 Z " fill="#46551C" transform="translate(117,70)"/>
<path d="M0 0 C0.25 3.3125 0.25 3.3125 0 7 C-2 8.9375 -2 8.9375 -4 10 C-4.66 8.68 -5.32 7.36 -6 6 C-6.66 6 -7.32 6 -8 6 C-8 4.35 -8 2.7 -8 1 C-5.10765685 0.17361624 -3.11257569 0 0 0 Z " fill="#DECC9A" transform="translate(109,8)"/>
<path d="M0 0 C0 1.98 0 3.96 0 6 C-0.99 6 -1.98 6 -3 6 C-3.33 6.99 -3.66 7.98 -4 9 C-6.875 9.1875 -6.875 9.1875 -10 9 C-10.66 8.01 -11.32 7.02 -12 6 C-11.071875 5.731875 -10.14375 5.46375 -9.1875 5.1875 C-6.17554236 4.06539813 -5.03652504 3.3420038 -3 1 C-1 0 -1 0 0 0 Z " fill="#46591F" transform="translate(128,38)"/>
<path d="M0 0 C3.08301416 -0.11644156 6.16546123 -0.18732432 9.25 -0.25 C10.12269531 -0.28351563 10.99539062 -0.31703125 11.89453125 -0.3515625 C18.41598332 -0.45112665 18.41598332 -0.45112665 21.609375 2.015625 C22.06828125 2.67046875 22.5271875 3.3253125 23 4 C15.1332874 3.57477229 7.63809855 2.97537032 0 1 C0 0.67 0 0.34 0 0 Z " fill="#7F551D" transform="translate(66,158)"/>
<path d="M0 0 C0.66 0.33 1.32 0.66 2 1 C2.38133299 2.9914056 2.71325582 4.99279077 3 7 C3.33 7.66 3.66 8.32 4 9 C2.14375 8.9690625 2.14375 8.9690625 0.25 8.9375 C-2.6640825 8.93233319 -5.20953327 9.06984442 -8 10 C-9.5625 7.625 -9.5625 7.625 -11 5 C-10.67 4.34 -10.34 3.68 -10 3 C-8.68 4.65 -7.36 6.3 -6 8 C-4.02 5.36 -2.04 2.72 0 0 Z " fill="#27372D" transform="translate(39,79)"/>
<path d="M0 0 C0.08086147 1.79093191 0.13912702 3.58289628 0.1875 5.375 C0.22230469 6.37273438 0.25710937 7.37046875 0.29296875 8.3984375 C0.19628906 9.25695313 0.09960938 10.11546875 0 11 C-0.99 11.66 -1.98 12.32 -3 13 C-3.66 12.01 -4.32 11.02 -5 10 C-4.649375 9.4225 -4.29875 8.845 -3.9375 8.25 C-2.85082593 5.64198224 -3.06934867 4.60582371 -4 2 C-5.98 2 -7.96 2 -10 2 C-6.72062432 -1.27937568 -4.29494642 -1.19503739 0 0 Z " fill="#CBC198" transform="translate(111,7)"/>
<path d="M0 0 C1.65 0 3.3 0 5 0 C5 2.64 5 5.28 5 8 C4.4225 7.814375 3.845 7.62875 3.25 7.4375 C0.79307475 6.95976454 -0.64397534 7.24270636 -3 8 C-3 6.35 -3 4.7 -3 3 C-2.34 3 -1.68 3 -1 3 C-0.67 2.01 -0.34 1.02 0 0 Z " fill="#515D1B" transform="translate(4,167)"/>
<path d="M0 0 C0.41750113 6.05376634 0.11311805 9.181776 -4 14 C-4.99 14.33 -5.98 14.66 -7 15 C-4.78640777 0 -4.78640777 0 0 0 Z " fill="#996525" transform="translate(66,43)"/>
<path d="M0 0 C0.33 0 0.66 0 1 0 C1 1.65 1 3.3 1 5 C-5.625 7.875 -5.625 7.875 -9 9 C-9 6.69 -9 4.38 -9 2 C-6.94921875 1.77213542 -4.8984375 1.54427083 -2.84765625 1.31640625 C-0.98859771 1.18113386 -0.98859771 1.18113386 0 0 Z " fill="#789997" transform="translate(9,10)"/>
<path d="M0 0 C1.98 0.66 3.96 1.32 6 2 C6 2.66 6 3.32 6 4 C2.04 5.98 2.04 5.98 -2 8 C-2.99 7.01 -3.98 6.02 -5 5 C-5 4.34 -5 3.68 -5 3 C-4.360625 2.87625 -3.72125 2.7525 -3.0625 2.625 C-2.0415625 2.315625 -2.0415625 2.315625 -1 2 C-0.67 1.34 -0.34 0.68 0 0 Z " fill="#5F661A" transform="translate(6,76)"/>
<path d="M0 0 C0.33 0 0.66 0 1 0 C2.17293889 6.3778552 3.29530838 12.50321562 3 19 C2.01 19.33 1.02 19.66 0 20 C0 13.4 0 6.8 0 0 Z " fill="#5A631A" transform="translate(0,113)"/>
<path d="M0 0 C0.99 0.33 1.98 0.66 3 1 C1.02 1.66 -0.96 2.32 -3 3 C-3 3.66 -3 4.32 -3 5 C-5.27057377 5.05398987 -7.54151288 5.09278742 -9.8125 5.125 C-11.70935547 5.15980469 -11.70935547 5.15980469 -13.64453125 5.1953125 C-17 5 -17 5 -20 3 C-19.3709375 2.93941406 -18.741875 2.87882813 -18.09375 2.81640625 C-8.77428484 2.41551817 -8.77428484 2.41551817 0 0 Z " fill="#9C6625" transform="translate(50,157)"/>
<path d="M0 0 C0.99 0.33 1.98 0.66 3 1 C3.25 3.3125 3.25 3.3125 3 6 C1.125 7.625 1.125 7.625 -1 9 C-1.66 9.99 -2.32 10.98 -3 12 C-3 9.36 -3 6.72 -3 4 C-2.34 4 -1.68 4 -1 4 C-0.67 2.68 -0.34 1.36 0 0 Z " fill="#5E6519" transform="translate(3,141)"/>
<path d="M0 0 C3.4375 0.25 3.4375 0.25 7 1 C7.66 1.99 8.32 2.98 9 4 C6.6875 5.5625 6.6875 5.5625 4 7 C3.01 6.67 2.02 6.34 1 6 C1 4.68 1 3.36 1 2 C0.34 1.67 -0.32 1.34 -1 1 C-0.67 0.67 -0.34 0.34 0 0 Z " fill="#403918" transform="translate(87,59)"/>
<path d="M0 0 C0.66 0 1.32 0 2 0 C2 0.99 2 1.98 2 3 C3.32 3 4.64 3 6 3 C6.33 3.99 6.66 4.98 7 6 C5.02 7.32 3.04 8.64 1 10 C-0.83691257 6.21812119 -1.15837626 4.05431692 0 0 Z " fill="#CBC095" transform="translate(21,8)"/>
<path d="M0 0 C2.31 0 4.62 0 7 0 C8 1 8 1 8.0625 3.5625 C8.041875 4.366875 8.02125 5.17125 8 6 C7.01 6 6.02 6 5 6 C5 4.35 5 2.7 5 1 C3.68 1.33 2.36 1.66 1 2 C1 5.96 1 9.92 1 14 C0.67 14 0.34 14 0 14 C0 9.38 0 4.76 0 0 Z " fill="#3D3412" transform="translate(68,57)"/>
<path d="M0 0 C0.66 0 1.32 0 2 0 C2 3.3 2 6.6 2 10 C-0.475 9.01 -0.475 9.01 -3 8 C-2.25 2.25 -2.25 2.25 0 0 Z " fill="#58611A" transform="translate(126,151)"/>
<path d="M0 0 C0.66 3.96 1.32 7.92 2 12 C1.01 12 0.02 12 -1 12 C-1.33 9.69 -1.66 7.38 -2 5 C-3.1446875 5.5259375 -3.1446875 5.5259375 -4.3125 6.0625 C-7 7 -7 7 -10 6 C-8.52270825 4.99723227 -7.04311423 3.99785546 -5.5625 3 C-4.73878906 2.443125 -3.91507812 1.88625 -3.06640625 1.3125 C-1 0 -1 0 0 0 Z " fill="#905E21" transform="translate(97,76)"/>
<path d="M0 0 C0.99 1.485 0.99 1.485 2 3 C5.45615059 4.32086377 5.45615059 4.32086377 9 5 C9.66 4.67 10.32 4.34 11 4 C10.67 5.32 10.34 6.64 10 8 C6.7 8 3.4 8 0 8 C0 5.36 0 2.72 0 0 Z " fill="#829E95" transform="translate(113,9)"/>
<path d="M0 0 C0.99 0 1.98 0 3 0 C3.33 1.65 3.66 3.3 4 5 C4.66 5 5.32 5 6 5 C6 4.34 6 3.68 6 3 C6.99 2.67 7.98 2.34 9 2 C8.67 3.65 8.34 5.3 8 7 C3.125 6.125 3.125 6.125 2 5 C1.34 5.66 0.68 6.32 0 7 C0 4.69 0 2.38 0 0 Z " fill="#586019" transform="translate(0,176)"/>
<path d="M0 0 C0.598125 0.20625 1.19625 0.4125 1.8125 0.625 C2.1425 1.945 2.4725 3.265 2.8125 4.625 C1.8225 4.955 0.8325 5.285 -0.1875 5.625 C-0.1875 6.285 -0.1875 6.945 -0.1875 7.625 C-0.8475 7.625 -1.5075 7.625 -2.1875 7.625 C-2.31125 6.820625 -2.435 6.01625 -2.5625 5.1875 C-2.871875 3.9190625 -2.871875 3.9190625 -3.1875 2.625 C-3.8475 2.295 -4.5075 1.965 -5.1875 1.625 C-2.1875 -0.375 -2.1875 -0.375 0 0 Z " fill="#44541C" transform="translate(6.1875,173.375)"/>
<path d="M0 0 C0 2.97 0 5.94 0 9 C-4 8 -4 8 -7 6 C-6.34 5.67 -5.68 5.34 -5 5 C-4.67 4.01 -4.34 3.02 -4 2 C-1 0 -1 0 0 0 Z " fill="#C8BF97" transform="translate(128,11)"/>
<path d="M0 0 C0.99 0.33 1.98 0.66 3 1 C2.8125 2.875 2.8125 2.875 2 5 C-0.4375 6.125 -0.4375 6.125 -3 7 C-3.66 7.66 -4.32 8.32 -5 9 C-5.33 7.35 -5.66 5.7 -6 4 C-5.01 3.67 -4.02 3.34 -3 3 C-1.33289654 1.50014391 -1.33289654 1.50014391 0 0 Z " fill="#535E1B" transform="translate(120,151)"/>
<path d="M0 0 C0.93826619 3.06687009 1.01788333 5.45007796 0.625 8.625 C0.53476563 9.40101563 0.44453125 10.17703125 0.3515625 10.9765625 C0 13 0 13 -1 15 C-0.34 15 0.32 15 1 15 C1 15.66 1 16.32 1 17 C0.01 17 -0.98 17 -2 17 C-2.33 17.99 -2.66 18.98 -3 20 C-4 17 -4 17 -3.0625 13.8125 C-2.1822919 10.65410622 -1.90261129 8.83831135 -2 5.6875 C-2 2 -2 2 0 0 Z " fill="#474819" transform="translate(112,138)"/>
<path d="M0 0 C1.70884005 1.62339805 3.37446717 3.29319053 5 5 C5 5.66 5 6.32 5 7 C5.66 7 6.32 7 7 7 C7.66 5.68 8.32 4.36 9 3 C9.33 3.66 9.66 4.32 10 5 C8 8 8 8 5.375 8.6875 C4.59125 8.790625 3.8075 8.89375 3 9 C-0.22265625 3.7265625 -0.22265625 3.7265625 -1 2 C-0.67 1.34 -0.34 0.68 0 0 Z " fill="#3E4839" transform="translate(41,81)"/>
<path d="M0 0 C-0.8125 1.9375 -0.8125 1.9375 -2 4 C-5.47325181 5.1577506 -8.36067448 5.06866652 -12 5 C-12 4.34 -12 3.68 -12 3 C-10.37604003 2.49663233 -8.75079459 1.99741024 -7.125 1.5 C-6.22007813 1.2215625 -5.31515625 0.943125 -4.3828125 0.65625 C-2 0 -2 0 0 0 Z " fill="#B07129" transform="translate(111,148)"/>
<path d="M0 0 C0.33 0 0.66 0 1 0 C1.02712066 1.43739513 1.04645067 2.87493863 1.0625 4.3125 C1.07410156 5.11300781 1.08570312 5.91351563 1.09765625 6.73828125 C1 9 1 9 0 12 C-1.65 12 -3.3 12 -5 12 C-4.72285156 11.46890625 -4.44570312 10.9378125 -4.16015625 10.390625 C-3.79792969 9.68421875 -3.43570313 8.9778125 -3.0625 8.25 C-2.52302734 7.20585938 -2.52302734 7.20585938 -1.97265625 6.140625 C-1.04441818 4.09775567 -0.46833422 2.18884624 0 0 Z " fill="#3A4C1D" transform="translate(123,115)"/>
<path d="M0 0 C1.2065625 0.0309375 1.2065625 0.0309375 2.4375 0.0625 C2.7675 0.7225 3.0975 1.3825 3.4375 2.0625 C2.5 4.6875 2.5 4.6875 1.4375 7.0625 C0.4475 7.0625 -0.5425 7.0625 -1.5625 7.0625 C-1.5625 5.4125 -1.5625 3.7625 -1.5625 2.0625 C-2.2225 1.7325 -2.8825 1.4025 -3.5625 1.0625 C-2.5625 0.0625 -2.5625 0.0625 0 0 Z " fill="#413E1E" transform="translate(35.5625,41.9375)"/>
<path d="M0 0 C0.66 0.33 1.32 0.66 2 1 C1.52060632 5.71403788 1.03165952 9.66579301 -1 14 C-1.66 13.67 -2.32 13.34 -3 13 C-2.649375 12.21625 -2.29875 11.4325 -1.9375 10.625 C-1.628125 9.75875 -1.31875 8.8925 -1 8 C-1.33 7.34 -1.66 6.68 -2 6 C-1.39421747 3.98072489 -0.73080266 1.97746603 0 0 Z " fill="#B2813C" transform="translate(77,57)"/>
<path d="M0 0 C1.134375 0.12375 2.26875 0.2475 3.4375 0.375 C4.0975 1.365 4.7575 2.355 5.4375 3.375 C1.4775 3.375 -2.4825 3.375 -6.5625 3.375 C-3.5625 0.375 -3.5625 0.375 0 0 Z " fill="#423714" transform="translate(55.5625,36.625)"/>
<path d="M0 0 C2 3.75 2 3.75 2 6 C0.02 6.33 -1.96 6.66 -4 7 C-4.33 6.01 -4.66 5.02 -5 4 C-3 1 -3 1 0 0 Z " fill="#DCCB9A" transform="translate(95,14)"/>
<path d="M0 0 C1.65 0.33 3.3 0.66 5 1 C5 1.99 5 2.98 5 4 C4.34 3.67 3.68 3.34 3 3 C2.67 4.32 2.34 5.64 2 7 C1.01 7 0.02 7 -1 7 C-0.7525 6.1028125 -0.7525 6.1028125 -0.5 5.1875 C0.1114124 2.88655664 0.1114124 2.88655664 0 0 Z " fill="#443F1E" transform="translate(53,42)"/>
<path d="M0 0 C0.33 0.66 0.66 1.32 1 2 C0.07421875 3.9453125 0.07421875 3.9453125 -1.3125 6.125 C-1.76238281 6.84945312 -2.21226563 7.57390625 -2.67578125 8.3203125 C-3.11277344 8.87460938 -3.54976562 9.42890625 -4 10 C-4.66 10 -5.32 10 -6 10 C-5.58578031 5.16743695 -3.53586014 3.17320782 0 0 Z " fill="#314540" transform="translate(58,136)"/>
<path d="M0 0 C0.66 0.66 1.32 1.32 2 2 C-2.95 4.475 -2.95 4.475 -8 7 C-8.66 6.01 -9.32 5.02 -10 4 C-6.7 2.68 -3.4 1.36 0 0 Z " fill="#28372E" transform="translate(55,85)"/>
<path d="M0 0 C0.33 0.66 0.66 1.32 1 2 C0.01 2.33 -0.98 2.66 -2 3 C-1.67 3.66 -1.34 4.32 -1 5 C-3.97 4.67 -6.94 4.34 -10 4 C-6.48283697 0.48283697 -4.80432667 0.45323837 0 0 Z " fill="#B47A32" transform="translate(37,155)"/>
<path d="M0 0 C3.63 0.33 7.26 0.66 11 1 C9.35 2.32 7.7 3.64 6 5 C2.83884224 3.63016497 2.0072908 3.0109362 0 0 Z " fill="#AC702A" transform="translate(74,75)"/>
<path d="M0 0 C2.6855594 2.6855594 3.06049974 5.37621328 4 9 C2.35 9 0.7 9 -1 9 C-1.33 8.34 -1.66 7.68 -2 7 C-1.34 7 -0.68 7 0 7 C-0.2784375 5.824375 -0.2784375 5.824375 -0.5625 4.625 C-1 2 -1 2 0 0 Z " fill="#453612" transform="translate(95,49)"/>
<path d="M0 0 C2.50037734 2.17424117 3.43628586 3.73045798 4 7 C1.69 6.34 -0.62 5.68 -3 5 C-1.125 1.125 -1.125 1.125 0 0 Z " fill="#CC9044" transform="translate(91,49)"/>
<path d="M0 0 C1.670625 0.061875 1.670625 0.061875 3.375 0.125 C3.375 1.115 3.375 2.105 3.375 3.125 C2.281875 3.24875 1.18875 3.3725 0.0625 3.5 C-3.69881802 3.87964801 -3.69881802 3.87964801 -6.625 6.125 C-5.71577947 1.57889733 -4.95184304 0.17075321 0 0 Z " fill="#E3A653" transform="translate(54.625,39.875)"/>
<path d="M0 0 C0.99 0.99 1.98 1.98 3 3 C-1.29 3 -5.58 3 -10 3 C-10 2.34 -10 1.68 -10 1 C-6.88450128 -0.55774936 -3.3955612 -0.56480622 0 0 Z " fill="#393110" transform="translate(39,37)"/>
<path d="M0 0 C0.33 0 0.66 0 1 0 C1.33 3.3 1.66 6.6 2 10 C-0.31 9.01 -2.62 8.02 -5 7 C-4.01 6.67 -3.02 6.34 -2 6 C-2 5.01 -2 4.02 -2 3 C-1.34 3 -0.68 3 0 3 C0 2.01 0 1.02 0 0 Z " fill="#D19748" transform="translate(60,30)"/>
<path d="M0 0 C1.9375 0.75 1.9375 0.75 4 2 C4.75 4.125 4.75 4.125 5 6 C3.35 6 1.7 6 0 6 C0 4.02 0 2.04 0 0 Z " fill="#3E4E1C" transform="translate(66,141)"/>
<path d="M0 0 C0.66 1.32 1.32 2.64 2 4 C1.01 4.99 0.02 5.98 -1 7 C0.65 7 2.3 7 4 7 C4 7.33 4 7.66 4 8 C2.02 8.33 0.04 8.66 -2 9 C-2.6875 6.75 -2.6875 6.75 -3 4 C-1.5625 1.6875 -1.5625 1.6875 0 0 Z " fill="#C49045" transform="translate(32,29)"/>
<path d="M0 0 C0 1.65 0 3.3 0 5 C-1.875 5.625 -1.875 5.625 -4 6 C-4.66 5.34 -5.32 4.68 -6 4 C-5.67 3.01 -5.34 2.02 -5 1 C-3.28960011 0.41205004 -1.81522119 0 0 0 Z " fill="#E0CD9A" transform="translate(18,9)"/>
<path d="M0 0 C2.97 0.99 5.94 1.98 9 3 C9 3.66 9 4.32 9 5 C7.02 5.33 5.04 5.66 3 6 C3 4.68 3 3.36 3 2 C2.01 2 1.02 2 0 2 C0 1.34 0 0.68 0 0 Z " fill="#48581C" transform="translate(116,134)"/>
<path d="M0 0 C-3.42232972 1.14077657 -6.08673217 1.09815117 -9.6875 1.0625 C-11.45673828 1.04896484 -11.45673828 1.04896484 -13.26171875 1.03515625 C-14.16535156 1.02355469 -15.06898437 1.01195312 -16 1 C-16 0.67 -16 0.34 -16 0 C-14.08655626 -0.39111271 -12.16903447 -0.76231167 -10.25 -1.125 C-9.18265625 -1.33382813 -8.1153125 -1.54265625 -7.015625 -1.7578125 C-3.86311649 -2.01099324 -2.60040934 -1.70415175 0 0 Z " fill="#B0B396" transform="translate(97,23)"/>
<path d="M0 0 C1.65 0 3.3 0 5 0 C5 0.99 5 1.98 5 3 C2.69 3.33 0.38 3.66 -2 4 C-1.34 2.68 -0.68 1.36 0 0 Z " fill="#BCBA97" transform="translate(15,6)"/>
<path d="M0 0 C0.33 0.99 0.66 1.98 1 3 C3.50447516 4.21869929 3.50447516 4.21869929 6 5 C2.91190305 6.76462683 1.76687864 7 -2 7 C-2 6.34 -2 5.68 -2 5 C-1.34 5 -0.68 5 0 5 C-0.33 4.01 -0.66 3.02 -1 2 C-0.67 1.34 -0.34 0.68 0 0 Z " fill="#3C501F" transform="translate(120,175)"/>
<path d="M0 0 C0.33 0 0.66 0 1 0 C0.67 2.31 0.34 4.62 0 7 C-0.99 7.33 -1.98 7.66 -3 8 C-3 6.02 -3 4.04 -3 2 C-2.01 2 -1.02 2 0 2 C0 1.34 0 0.68 0 0 Z " fill="#535E1B" transform="translate(3,158)"/>
<path d="M0 0 C1.62418745 -0.08090971 3.24951745 -0.13914995 4.875 -0.1875 C5.77992187 -0.22230469 6.68484375 -0.25710937 7.6171875 -0.29296875 C8.79667969 -0.14794922 8.79667969 -0.14794922 10 0 C10.66 0.99 11.32 1.98 12 3 C3.96428571 2.19642857 3.96428571 2.19642857 0 0 Z " fill="#AA6F29" transform="translate(77,159)"/>
<path d="M0 0 C0.66 0 1.32 0 2 0 C2.33 1.32 2.66 2.64 3 4 C6.0745356 3.2236068 6.0745356 3.2236068 8 1 C7.67 2.32 7.34 3.64 7 5 C4.6875 5.6875 4.6875 5.6875 2 6 C0.1875 4.5625 0.1875 4.5625 -1 3 C-0.67 2.01 -0.34 1.02 0 0 Z " fill="#D5BE89" transform="translate(86,61)"/>
<path d="M0 0 C0.75 1.75 0.75 1.75 1 4 C-0.9375 6.25 -0.9375 6.25 -3 8 C-3.66 7.67 -4.32 7.34 -5 7 C-3.88820837 3.66462511 -2.52588702 2.36292656 0 0 Z " fill="#575B1C" transform="translate(64,53)"/>
<path d="M0 0 C-0.33 1.32 -0.66 2.64 -1 4 C-1.66 3.67 -2.32 3.34 -3 3 C-3 3.66 -3 4.32 -3 5 C-4.65 5 -6.3 5 -8 5 C-3.16129032 0 -3.16129032 0 0 0 Z " fill="#CFC398" transform="translate(22,14)"/>
<path d="M0 0 C0.33 0.66 0.66 1.32 1 2 C-6.42857143 2.28571429 -6.42857143 2.28571429 -10 0 C-6.26840331 -1.24386556 -3.81984796 -0.77811718 0 0 Z " fill="#B4752B" transform="translate(85,167)"/>
<path d="M0 0 C3.36591866 1.44253657 5.51047079 3.33264727 8 6 C4.7 5.01 1.4 4.02 -2 3 C-1.34 2.01 -0.68 1.02 0 0 Z " fill="#212209" transform="translate(11,171)"/>
<path d="M0 0 C4.455 1.98 4.455 1.98 9 4 C9 4.33 9 4.66 9 5 C2.47692308 4.38461538 2.47692308 4.38461538 0.0625 2.4375 C-0.288125 1.963125 -0.63875 1.48875 -1 1 C-0.67 0.67 -0.34 0.34 0 0 Z " fill="#B3742B" transform="translate(57,163)"/>
<path d="M0 0 C-0.33 0.66 -0.66 1.32 -1 2 C-3.32156597 2.40729228 -5.6568787 2.74438677 -8 3 C-8.33 2.34 -8.66 1.68 -9 1 C-3.375 -1.125 -3.375 -1.125 0 0 Z " fill="#C38B40" transform="translate(81,162)"/>
<path d="M0 0 C0.66 0.33 1.32 0.66 2 1 C1.01 3.31 0.02 5.62 -1 8 C-1.99 7.67 -2.98 7.34 -4 7 C-2.68 4.69 -1.36 2.38 0 0 Z " fill="#885A1F" transform="translate(104,64)"/>
<path d="M0 0 C1.32 0.66 2.64 1.32 4 2 C0.375 5 0.375 5 -3 5 C-2.67 3.68 -2.34 2.36 -2 1 C-1.34 1.33 -0.68 1.66 0 2 C0 1.34 0 0.68 0 0 Z " fill="#54601C" transform="translate(3,54)"/>
<path d="M0 0 C1.5 1.375 1.5 1.375 3 3 C3 3.66 3 4.32 3 5 C2.34 5 1.68 5 1 5 C0.67 5.99 0.34 6.98 0 8 C-0.66 7.34 -1.32 6.68 -2 6 C-1.64644564 3.73725212 -1.02455574 2.04911148 0 0 Z " fill="#946B2F" transform="translate(25,44)"/>
<path d="M0 0 C3.375 -0.1875 3.375 -0.1875 7 0 C7.66 0.99 8.32 1.98 9 3 C8.67 3.99 8.34 4.98 8 6 C7.67 5.34 7.34 4.68 7 4 C6.01 3.67 5.02 3.34 4 3 C4 2.34 4 1.68 4 1 C2.68 0.67 1.36 0.34 0 0 Z " fill="#D1994B" transform="translate(31,39)"/>
<path d="M0 0 C1.32 0.66 2.64 1.32 4 2 C4 2.99 4 3.98 4 5 C1 5 1 5 -1 4 C-0.67 2.68 -0.34 1.36 0 0 Z " fill="#393214" transform="translate(72,36)"/>
<path d="M0 0 C0.99 0.33 1.98 0.66 3 1 C3 2.65 3 4.3 3 6 C2.01 6 1.02 6 0 6 C-0.38218767 4.34385343 -0.71395102 2.67542976 -1 1 C-0.67 0.67 -0.34 0.34 0 0 Z " fill="#43571F" transform="translate(64,70)"/>
<path d="M0 0 C1.65 0.33 3.3 0.66 5 1 C5 2.65 5 4.3 5 6 C3.66666667 4.66666667 2.33333333 3.33333333 1 2 C0.34 2.66 -0.32 3.32 -1 4 C-0.67 2.68 -0.34 1.36 0 0 Z " fill="#AD712A" transform="translate(103,63)"/>
<path d="M0 0 C0.33 0 0.66 0 1 0 C1.1875 3.375 1.1875 3.375 1 7 C0.01 7.66 -0.98 8.32 -2 9 C-2.66 8.01 -3.32 7.02 -4 6 C-2.68 5.67 -1.36 5.34 0 5 C0 3.35 0 1.7 0 0 Z " fill="#C1BB96" transform="translate(110,11)"/>
<path d="M0 0 C0 0.66 0 1.32 0 2 C0.99 2.33 1.98 2.66 3 3 C-4.42857143 3.28571429 -4.42857143 3.28571429 -8 1 C-2.25 0 -2.25 0 0 0 Z " fill="#5D6319" transform="translate(125,182)"/>
<path d="M0 0 C-1.98 0.66 -3.96 1.32 -6 2 C-6 2.66 -6 3.32 -6 4 C-7.65 3.67 -9.3 3.34 -11 3 C-4.33333333 -1.44444444 -4.33333333 -1.44444444 0 0 Z " fill="#8C5C20" transform="translate(53,158)"/>
<path d="M0 0 C0.66 0 1.32 0 2 0 C2 0.99 2 1.98 2 3 C2.66 3.33 3.32 3.66 4 4 C2.02 4.99 2.02 4.99 0 6 C-1.125 2.25 -1.125 2.25 0 0 Z " fill="#B5B797" transform="translate(21,8)"/>
</svg>
